<svg xmlns="http://www.w3.org/2000/svg" viewBox="0 0 1128.79 609.75"><defs><style>.cls-1{fill:#a3a3a3;}</style></defs><g id="Layer_2" data-name="Layer 2"><g id="Map"><path class="cls-1" d="M508.57,168.58c-.23,1.06.43,1.54,1.49,1.4-.92,1.94-2.71-.25-3.52-1.22.1-.19.2-.4.36-.66l.78.63c0-.29.05-.57.08-.87.5,0,.58.3.81.72ZM224.37,82.09h0c-.35.38-1,.4-1.38.77-1.2-2.73-1.82-2.19-4.59-2.24l4.21-2.81c-.5-.18-.87-.73-1.34-.92.68-.43,1.38-.86,2.09-1.29-1.58-.83-2.26-1.53-3.93-.95s-2.41,1.06-4.11.22-2.5-.19-4.24-.11c-.73,0-1.78,1.78-2.37,2.35.71.31,3.92,1.16,3.92,1.93,0,1.63.06,3.69-2.23,3.28-1-.18-2.28-2.64-3.34-2.28s-2.83,1.41-1.41,2.55c2.64,2.12,5.72,2.83,7.89,5.57,1,1.24,1.78,2.88,3.27,3.23,1.22.25,3.24-.74,2.73-2.31,2.06.91,7.75-2.91,4-4.22a9.57,9.57,0,0,1,1.69-.63c-.3-.71-.59-1.42-.88-2.14Zm280.26,86.43h0c.1.44-.55,1.54.44,2.3,0-1-.16-1.81.51-2.66a4.09,4.09,0,0,0-1.29-.17c-.08.43.13.32.34.53Zm-218.92-53.6h0c1.06,1,4.14,2.73,5.32.82s.25-2.9,1-4.86c-2.5-3.48-9.13,1.5-6.32,4Zm18.52-23.15c-.71.43-3.79,1.76-3.51,2.59.7,1.91,3,.38,3.61-1.11.81-1.85,7.45,2.5,8.78,3.18-.55,1.85-3.1,1.87-4.58,2.34,1.17.2,2.5-.09,2.05,1.68,1.23-.63,2.94-1,3.23-2.68,1.13.76,2.93,1.56,2.9,3.27a5.9,5.9,0,0,0-4.64,1.21c1.07.41,2.09,1,3.23.83,2.07-.37,1.91-.44,2.69,1.75l-4-.82c.13.9.28,1.79.42,2.68l-2.86.35c3.37,1.52,6.77,2.82,10.22,4.13a7.19,7.19,0,0,1,3.45,2.55c1.48,1.62,2.43,1.53,4.52,1.83l-1.36,2.1c1.4,0,3.88-.67,5.18-.12,2.13.93,1.32,2.28,1.06,4.56-1-.17-2.69-.91-3.4,0,.83.38,1.63.78,2.44,1.17-2.44,1.27-3.38,2.53-5.7.92.18,1.79.68,3.73.1,5.48a15.09,15.09,0,0,1-6.13-4.9c1.22-.57,3.09-.75,2.53-2.67-.78.28-2.49,1.34-3.28,1.17-1.09-.26-2.06-2.24-3.06-2.8-1.17-.65-2-.79-2.71.28-1.05,1.59.82,1.47.9,3.2l-2.65-.34c.29.9.57,1.79.87,2.68,1.32-.51,1.63-1.15,2.13.37.41,1.27.83,2.54,1.25,3.83.4-2,1.38-1.09,2.59-.55,1.49.68,1.32,1.09,1.68,2.88.31,1.49,1.61,1,2.28,2.09.54.9.38,3.13.54,4.21l-1.6-2.1c-1,1.66,1.48,2.12.75,3.85-.36-.18-.84-.14-1.17-.35l.75,2c-.68.22-2.47-2.13-3.52-2.79l-5.8-3.64c.26.51.28,1.15.54,1.65l-3.4-1.52c.65,1.11,1.28,2.24,1.92,3.35.46.8,2.22.65,3,1.16,1.17.82,2.34,1.66,3.51,2.5s.7,1.39.51,2.91c-3.17-.83-6.33-1.63-9.49-2.44-1.15-.29-1.09-1.73-1.77-1.92l-4.83-1.24c.18-.27.36-.54.54-.83-1.66,0-2.6-.66-4-1.5.83-.44,1.7-.87,2.54-1.29-1.45-.81-3.13-.65-4-2-1.63-2.52-1.58-4.05-4.11-2.4,0-1.09-.61-1.65-1.6-1.51.07.47-.26,1-.21,1.51-1.44-.34-3-1.27-4.18-.17s-3.17.77-4.76.86c-1.06,0-2.72-2-2.18-3,.74-1.33,2.84-1.74,2.55-3.33,2.34.29,5,1.19,7.32.54.57-.17,4.11-.7,4.33-1.24.45-1.22-2-2.45-2.65-2.91l5.87-5.91c.52-.51,1.39-.9,1-1.62-.84-1.51-1.66-3-2.48-4.56-1.26-2.3-3.86-1.67-5.05-3.74-.92-1.6-.78-1.46-2.38-.83L287.21,108c0-3,.53-2.6,3.16-3.37-1.42-1.17-4.51-5.2-6.24-3.39-.14-.8-.31-1.6-.48-2.4s-1.45.08-1.95-.16c-1.44-.68-1.26-3.64-3.27-1.75,1.62.45,1.83,1.25,2.54,2.81-3.81.91-6.16,0-10-1.06l2.86,2.68c-1.28.48-1.6-1.16-2.76-1.28-.4,0-.72,1.17-1.2,1l-2.31-.9c-2.22-.86-5.39-.33-7.78-.43a8.19,8.19,0,0,1-3.51-.94c-1.4-1.28.47-2-2.12-1.75-1.13.11-1.79,1.2-3.19.39a11,11,0,0,1-4.65-4.36c2.49.22,4.95.42,7.41.65-2.45-2.63-4.68-2.27-8.09-2.62-.36,0-.71-3.7-.83-4.25-.17-1.19,1.31-3.62,1.74-4.73A9.22,9.22,0,0,1,252,76.29c3.53-1.52,5.1-1.52,8.9-1.08-.23.92-.45,1.84-.68,2.74a36.89,36.89,0,0,0,7.2-2.46c.93-.36,2.55.08,3.52.15,1.34.08,1,1.84,1.76,2.84s1.33.92,2,2.33c1,2,.71,2-.33,4-.9,1.62.47,1.61,1.43.66,1.71-1.72,1.55-1.62,3.59-.39.57.34,2.23-1.76,2.73-2.24.72-.69,2.83-.51,3.78-.64,1.85-.26,5.14,1.2,6.54,2.57,1.19,1.14,4.11,5.74,5.3,5.32,2-.72,5.66-1.15,6.52,1.71ZM205.09,60.35h0a2.88,2.88,0,0,0-2.06,1h2.69c-2.85,2,1.15,2.11,2.51,1.82,2.11-.45,4.25-.64,6.39-.89a1.6,1.6,0,0,1-1.75,1c.18.13.34.27.53.42a2.21,2.21,0,0,0-2.18,1,5.46,5.46,0,0,1,2.52.62,10,10,0,0,0-1.62.2c.17,1.41,1.28,1.3,2.4,1.66.61.21.92-.82,1.51-.77,1.7.11,4,.88,5.39-.54-.55-.26-1-.85-1.49-1.11a1.88,1.88,0,0,0,.79-1.8c.29.3.78.42,1.09.72.27-1.22-.52-1.58-.59-2.59s.44-1.83.38-2.65A5.38,5.38,0,0,0,220.19,56c-.65-.26-2-1.17-2.66-.77-1.94,1.18-3.45-.48-5.85.41-2.61,1,1.73,1.19,2,2.37-.48-.11-1,.12-1.45,0,.66.91,1.32,1.82,2,2.73-.9-.51-7.53-6.84-7.22-2.47.63,0,1.27,0,1.9.06-1.44.58-1.14,2.09.4,1.63-.42,1.39-2.92.16-4.23.38Zm.13,42.15a5.93,5.93,0,0,1-1.13-.7,6.69,6.69,0,0,0-1.27-.16c.93.92.68,2,.64,3.19,1.2-1.19,2.3-2.19,4-1.71-1.05,1.49.56,1.22.56,2.38,0,.69-2.59,1.51-3.25,1.59-2.56.26-5-1.18-7.55-1.18.31-.18.55-.49.85-.69l-4.59-.94c.21-.37.16-.94.36-1.31-1.3-.43-1.34.75-2.26,1.49a5,5,0,0,1-3,1.23c-2.18.37-3,1.91-5.15,2.06-3.2.27-6.38.5-9.58.75-2.61.2-3.24-1.3-3-4.13-4.54-.24-10,.69-11.63-5,2.82-.6,6.47-2.19,9.33-1.82a42.25,42.25,0,0,0,5.47.73c.82,0,4.65-.68,2.29-1.28a35.54,35.54,0,0,0-9.73-1.63c-2.36,0-4.71,0-7.07.1-1.82,0-2.22-.78-3.61-2.17l7-3.1c-2.23.07-4.46.14-6.7.23.23-.36.27-.89.5-1.23H153.6c-.34-2.13,1.71-3.19,3-4.36-.5-.11-.93-.61-1.42-.7A30.29,30.29,0,0,1,164.62,79c1.79-.68,2.51-1.34,4.13-.4,2.2,1.28.62,3-.9,4.2.93-.06,1.86-.14,2.8-.23s1.15-2,1.93-2.17c1.17-.32,4.46,2.07,5.63,2.63l-1.34,1.8c1.72,0,1.83.12,2.74-1.45.37-.63,2.59.34,3.26.51l-3-3.11c1.72-.27,5.72-.15,6.53,2.22.57,1.72,1.15,3.42,1.74,5.13.52,1.54,1.21.62,2.52.11q-1-2.77-2-5.58c-.3-.82-.61-1.66-.89-2.49s1.14-1.13.38-2.34c.63.32,2.81,1.9,3.22,1.27.9-1.38,2,.36,3.15,1,2.84,1.57,3.64,6.2,4.9,9.28.53,1.31-.59,2.8-.2,3.73s3.56,2.18,4.4,2.68c2.23,1.36,4.75,2.89,6.9,2.46.12,1.37.4,5.33-1.55,2.32-.13.41-.52.71-.64,1.1-1.36-1.16-2.75-1.86-3.18.78Zm9.82,3.18h0a4.74,4.74,0,0,0,1.29,1.12c.24-.58.46-.41.72-.74a1.43,1.43,0,0,0,1.34,1.28c.09-.24.17-.49.27-.74.65,1.92,3.64,2.11,5.23,2.4s3.32-1.4,4.76-2.33a48.06,48.06,0,0,0-6-4.69c-1.21-.8-2.17-2.18-3.27-1-.83.82-2.21,1.85-.77,2.9l-.75.17c-.73,1.47-2.1.17-2.87,1.67Zm291,60.93h0l-.6.27c.11.2.23.42.33.63.78-.7,1.11-1.15,2-1.36-.16-.21-.31-.39-.46-.6,1.32-.15,1.16-2,.55-1.68-1,.48-3.71,1.33-1.83,2.74ZM275.81,135.92h0c-2.1-1.55-2.5-1.68-5-1.32,2.23-2.23-3.57-5.1-4.66-5.86-.86-.59-2.21-.31-2.91-1.07-1.08-1.19-1.43-1.65-2.59-.07a4,4,0,0,1-.64-1.32c2.32-.41,1.58-3.57-.38-2.71s-1.92,2.63-2.53,4.89c-.25.93-.38,1.88-.56,2.82-.13.67.55,1.73.3,2.31s-2.6,2.39-3.17,3.25c.6-.06,4.36-1,4.65-.84.45.29.74,4.12,1.59,3.54,1.22-.88,2.22-2.67,3.33-3.06,1.83-.68,1.62-2.17,3.47-2.89-.41,3,4.62,3.56,6.42,4.12l2.68-1.79ZM238.68,68.19h0c.73,1.62,2.82.14,3.78-.52.77,1.59.7,1.84,2.31,2,1.33.13,2.53.65,2.83-1.28.23.42.71.72.93,1.16,0-.67.32-1.35.34-2,1.72.71-.11,2.82,1.83,2.91l5.8.27c-.09-.44.05-1-.08-1.4,1,1.4,3.67,2,4.23-.16.53,2.11,3.48.76,4.94.53-.15-.8-.27-1.59-.42-2.38,2,0,.92,2.18,2.37,2.7,1.29.44,2.2.91,3.51.69.78-.13,4.4-.19,4.62-1,.54-1.82,1.13-1.67,2.82-2.21a4.83,4.83,0,0,0-2.75-1.09l2.33-1.72c-3-2.56-6.79-4.56-10.67-3.28-1.65.55-3-.3-4.82.33a36,36,0,0,1-5.1,1.4,11.83,11.83,0,0,0,1,.85c-1.76-.39-4.28-1.53-6.06-1.31-.54.06-1.61,1.09-2.1.78-.85-.55-1.7-1.11-2.58-1.64-.45-.3-4-2.31-4.07-2.41-.32-1.15,3.22.24,3.6-1.41-1-.27-2-.56-3-.86-1.39-.39-.74-1.11-1.77-1.78-1.81-1.15-3.71.45-5.59.07s-2.84-2-4.58-2.29c-1.92-.31-4.3-1.22-6.19-.68-3.12.88-2.17,2.15-.16,4.16s3.13,1.59,5.58,1.25c2.1-.3,3.1-1.07,4.61.71.91,1.07,3.4,3.11,1.82,4.63-.94,2.35-.4,2.75.66,5Zm54.62,43.63c1.27-1.39,3.57-1,4.1,1.34-.43,0-5.29,0-4.1-1.34ZM248.81,17.15l-5,2-5.2-2.45c2.71-1.55,5.91-3.27,8.47-1.05,2-4.33,6.95-2.21,10.69-2.44l-3-1.41c1.42,0,2.82-.09,4.24-.12-.3-.73-.6-1.47-.87-2.21,1.24,0,3.08-.31,4.18.41,1.41.93,3.29,2.77,4.89,3.19l11.09,2.76-10-5.41c1.14-1,2.73-3.06,4.19-3.16l3.9-.24c.94-.07,1.12-1.14,1.94-1.43,1.05-.4,4.37.53,5.45,1,2,.81,4,1.63,6,2.45-1.69-1.41-3.39-2.8-5.08-4.2l8.49.13c1.94.06,4.12,2.33,5.75,3.44-.46-.93-.94-1.87-1.4-2.79C300.94,5.14,304.72,4,308.1,4c3.62,0,7.44,1.06,11,1.57-1.93,1.08-3.85,2.15-5.78,3.26,3.55-.77,6.78-1.92,10.37-1.27a71.84,71.84,0,0,1,11.78,3.13c-3,1.55-7,5-10.26,5.21l-13.59,1c2.06.36,4.09.69,6.14,1q-5.28,1.59-10.57,3.15c5.78-1.15,11.56-2.33,17.34-3.5-.17,2.81-7.8,4.78-10.13,6.23-1.72,1.05-4.1,3.31-6,3.7-2.27.48-4.52.94-6.78,1.39,1.41.08,2.81.16,4.23.22a12.69,12.69,0,0,1-4.32,3.4c-1.33.7-3.17-.33-4.56-.69.22.68.42,1.38.63,2.09-3.89.78-7.82,1.17-11.73,1.62,1.61.14,7.8-.59,7.28,2h-6.45c1.54.41,6.46.58,6.24,2.9l-5.6.71c1.07.57,2.12,1.15,3.19,1.74a6.66,6.66,0,0,1-4.24,3.15c-1.12.4-3.66-1.25-4.35-.7-.92.76,2,1.63.18,3.26-.62.55-4,3-3.34,4.07.8,1.21.82.82,2,.11,1-.6,1.25-.17,2.27.44.61.36.48,1.85.56,2.56s-1.47.82-1.92,1c-.69.24-1.24-.65-1.43-.57-.54.2-.8,1.23-1.37,1.44-1.88.55-3.74,1.13-5.61,1.7.41-1.66,1-2.2-.35-3.23-.89-.72-1.6,1.08-2.92-.34-.15,2.55-3.15,1.14-3.82-.39.4,2-1.37,1.24-2.38.89-1.19-.41-1.62,1.12-3.25,1.12-1.4,0-2.82-.22-4.21-.36s-2.7,1-3.06-1.11c-.78,2.41-3.66.91-3.74-1.25-1.21,1.4-1.69,2.72-3.09.88,1.07-.68-.3-1.33.2-2s2.31-1,3.06-1.34c2.17-.92,3.25-.37,5-2.23-2.6-.26-2.61-.5-3.95-2.95a9.32,9.32,0,0,1,5.44-.33c1.6.22,1.76,2.74,3.59,3.22,4.5,1.18,6.18-1.36,8.74-5-1.55,1.68-4.71,5.61-7.38,3.7-3.37-2.42-.59-4.26.47-7.44-1.44,1.37-3,3.87-4.92,3.43-2.81-.6-5.53-.78-2.56-3.78,3.22-3.25,9-2.67,12.64-.77a19.82,19.82,0,0,0-5.62-6.76c-2.48-1.72-7-1.41-4.68-5.92-.1.21,7.61.21,8.06.33,2.67.69,5.63,3.42,8,4.88l-5.7-5.24c5.7-1.05,11.28-2.24,16.92-3.72l-2.65-1.18q2.13-1.91,4.24-3.84c-3.31,1.49-5.69,2.55-8.34,5.13-.86.83-3.53.77-4.61,1l-5.25,1,3.18-2.68c-1.42.42-2.83.85-4.24,1.29.35-.34.6-.83,1-1.17-.6.17-2.59.4-2.67,1.1-.22,2-.42,1.58-2.23,1.58a53,53,0,0,1-6.63-.69,15.51,15.51,0,0,1,7.09-3.86c-3.52.26-4.93.54-7.91,2.55-2.37,1.6-5-.08-7.64-.8,2.43-1.15,4-1,6.66-1.29a17.15,17.15,0,0,0,7.09-2.44c-2.64.69-5.57,1.78-8.32,1.87-3,.11-5.72,1.59-8.28-.24l4.55-3.85Zm-38,30.14h0c-1.1-1.41-2.49-1.17-4-.89-1.7.35-.64,1.54.57,1.5s2.14-1,3.39-.61ZM277,148h0c.9-.86,3.71-3.7,1-4.59-1.14-.36-2.26,1-2.37,2-.13,1.41.46,1.63,1.38,2.61Zm220.22,48.08h0c-.35.19-.59.68-.94.88,2.87,2.44,6.8-2.09,9.57-2.85.94-.26,1.63.59,2-.57s.64-2.11,1-3.17a4.84,4.84,0,0,0-1.23-4.08c1.95-1.36,2.56-1.4,2.76-3.9-1,.33-1.26-1.51-2-2.4-.48-.56-2.27.25-2.95.42.17-.27.33-.55.48-.81-2.21-1.32-4.39,1.15-5.46,3,.71.28,1.44.52,2.14.77-.9.7-1.36,1.42-2.44,1.15-.71-.19-1.72-.77-2.4-.37-1.21.66-.86.81-.45,2.22.19.67-.91,1.39-1.34,1.83a9.56,9.56,0,0,0,3.65,1.12,20.81,20.81,0,0,0-3,3.14c1.24-.27,2.53-.84,3.79-.4-.85.18-2.59.16-3.12.91a3,3,0,0,1-2.08,1.36c.51.08,1,.39,1.54.46a15.14,15.14,0,0,1-1.6.82l2.11.52ZM264.05,143.38h0c.14.36.33,1.57.75,1.53,2.61-.23,5.6-1.36,6-4.64l-2-.07c-1.63.26-2.66.32-4,1.4-.89.74-1.22.63-.83,1.78ZM234,66.25c.62,3.47-1.7,3.1-4.13,3.43-1-.56-5.27-2.07-5.66-3.16-.9-2.74,4.55-3.7,5.63-4,1.87-.61,3.83,2,4.16,3.76Zm-36.23-27a15.8,15.8,0,0,1,.78-1.72c-.91,0-1.83.07-2.75.09,1-2.85,2.43-2.27,5.13-2.65,2.42-.34,3.49,1.28,4.39,3.35,1.17-.64,5.52-2.4,4.94,1.08,1.75-.29,2.15-.53,3.56.62.79.65.67.59.36,1.64-.23.78.91,1.55,1.4,2.08,3.27,3.71-3.33,3.85-4,2.61-.8-1.44-.9-2.31-2.41-2.48s-3.49.08-4.56-1.19-6.3,3.51-6.83-1.25c1.68-1.1,5.49,1.05,5.22-1.72-.82-.14-1.64-.31-2.48-.46.34-.19.55-.58.86-.79-1.46-1.46-2,1-3.6.79Zm.75,12.53h0c.75.88,1.7-.49.89-1.44a11.63,11.63,0,0,0-1.78-1.75c-1-.74-1.79-1.8-3.06-1.22.23.9.47,1.78.7,2.69.89.75,2.7,1.08,3.25,1.72Zm18.89-21.93h0c-.75-1.88-5.36-1.38-4,1.24,2,.79,5.57,2.79,4-1.24Zm6,14.64h0c-.89.43-1.87.25-2.79.66.78.35,2.2,1.85,2.5,1.85a10.69,10.69,0,0,0,2.83-.61c1-.27,2.85-.3,3.43-1.29s-.83-1.35.45-2.63c-1.14-.41-2.7-.39-3.63-.78s-1.73-1.38-2.75-1.78c-1.45-.62-6.7-1.57-3.78,1.48-.33,0-.67.1-1,.15.71,2.83,3.16,1.42,4.73,2.95Zm-47.68,1.05h0c-2.89.46-4.18-.09-3.58,3.39,1.3,0,2.41,1.85,3.51,1.55,1.75-.43,3.52-.89,5.27-1.33,1.24-.33.6-.78.91-1.68s-2-.13-2.4-1c1.48-.32,2.9-.36,3.94-1.7-2.18-.95-5.47.37-7.65.73Zm5.31,12.12h0l3.42,2.09c-.78.33-1.54.63-2.32.94.72.32,3.72,1.07,3.59,1.93-.27,1.82-2,1-3.53.87-.78,0-4,.3-4.2-.62-.47-2-.71-1.84-2.61-1.66.3-.16.62-.33.92-.52-1.23-1-2.78-3-4.34-2.75-2.88.51-1.83-.62-4.17-1.54-.45-.16-4,.14-4.08,1s2.91,1.21,3.61,1.41c-2.37-.18-4.08-.49-6.26.48l0,1.17c1.49.88,4.12.2,5.8.14-.76.52-7.56.13-7.4,1.81s5.9-.17,6.64-.36c-2.2,1.83-6.75.5-8.14,3.14a6.84,6.84,0,0,0,4.62.35c-.06.31-.15.62-.23.92a19.36,19.36,0,0,0,2.35.62c-.57-1.64,1.27-1.37,1.54.23,2-1.22,2.35-1.38,3-3.79,1.48.5.87,1.59.62,2.86,1.14-.09,3.79.44,3.95-1.18.71,1.67,3.48.83,4.68,0-2.31,2.45-7.06,2.87-10.32,4,3.94,2.54,5.56,1.72,9.78.19,2.35-.83,4.69-1.7,7-2.55,1.37-.48,2.12.79,3.42.71.65,0,.73-1.21,1.8-1.21h3.36c1.46,0,2.12-1.76,2.47-3.32.45-2,.26-3.78-2.32-3.43-3.11.44-.52,1.34-1.74,2.91-.47-1.61-1-1.86-2.37-2.28-.87-.27-1.06-1.92-1.81-2.52-1.54-1.22-.34-4.86-3.47-3.57a14.66,14.66,0,0,1-3.31,3.53ZM223.89,29.4h0c.46,3.66,4.46,3.66,6.88,2.68-.82,1.28-2,1.17-3.28,1.36-1,.15-.67,1.45.27,1.33s.85,1.67,2,.79c.79-.61,1.29-1.23,2.3-.85-.05.25-.09.54-.15.8,1.12.6,1.5-.34,2.44-.8.27-.15,1.37,1.2,1-.59,1.79.73,4.79-.19,6,.93l-4.44.58c2.19.9,4.41.42,6.72.3-4.22.79-8.06.47-12.07,2.1a11.07,11.07,0,0,0,3.82,1.45c-.72.06-1.42.12-2.12.16,1.16,1.77,4.41,1.15,6.39,1.59l-4,.47c1.77,2.81,5.73,2.3,8.42,2.44a2,2,0,0,0-1.38-1.46c1.79-.07,2.54.7,4,1.82-.65-1.33-1.3-2.64-1.95-4,1.32,1.32,2.64,2.59,4,3.87.58-1.53,1-2.27.05-3.73,5.56,3-.5-2.34,3.23-3.44-.36,1.2.21,2.17.63,3.26,1-.87,2.58-1.43,1.85-3,1,.84,4.89-1.27,6.51-1.76a11.23,11.23,0,0,0-2.65-2.85c-.15.52-.62.94-.73,1.46-.21-2.76-3.2-1.09-4.49-.58,1.44-2.78,2.16-4-1.28-4.43,2.14-1.83-.87-4.16-2.8-2.5L250.29,29a2.93,2.93,0,0,1-2.81-1.34c-.37-.61.63-2.5-1-2S243.2,25.38,242,24c-1.91-2.17-3-3.93-5.62-4.62-1.6-.43-4.2-1.33-5.39.41,1.47.53,3.1,0,4.38.76-1.36,2.37-6.14-1.06-7.6,2.73,1.18.4,3,.18,3.9,1-1.14.24-6.58.45-4.9,2.22l-2.54.93c1.46.69,2.32.36,3.74.72-.23.12-.46.25-.68.39,1.38.65,2.84-.86,4.07,0-.48.11-.87.58-1.32.7.32.25.57.66.89.87-.5-.13-1-.22-1.53-.4-1.84-.11-3.67-.21-5.5-.29ZM199.66,58.77c1-1.13,4.33-1.22,5.72-1,.48,2.67-4.62,2.27-5.72,1Zm-41.29.32c.33,1.27-1.37,2.64-2.07,3.56-.52.7-3,1.13-3.36.09-.54-1.42,4.49-3.4,5.43-3.65ZM508,170.94h0l-.41.26.35.4c0-.23.28-.31.06-.66ZM191.63,77.36h0a6.13,6.13,0,0,1,3,1.9c1,1,1.64,2.09,3,1.5a4,4,0,0,0,1.78-3.13c0-1.5-1-1.63-2.17-2.42-2.12.43-4.7-.36-5.61,2.15Zm10.78-11.51h0c-.81-2.22-1.88-1.93-3.64-1.31-2.08,2.9,2.58,1.78,3.64,1.31ZM199,55.63a3.75,3.75,0,0,1,3.22-.11l2.08,1.33c-1.16,1.21-3,.81-4.41.69-.13-.95-.39-.89-.89-1.91Zm34.7-6.07c-1.88-.08-7.66.87-8.32-1.56,3-1.74,6.48-1.51,9.8-.53-.51.7-1,1.4-1.48,2.09Zm42.23,31.33h0c.42.56,1.58,1,2.16,1.3,1.07.64,4.47-.84,5.7-1.12,1.53-.34,3.49.14,5.05.21-2.09-2.74-3.58-3.66-6.5-5.22-1-.5-2.32.25-3.33-.13l-3.64-1.33a2.12,2.12,0,0,0-.52,4c1.47.72.26,1.18,1.08,2.3ZM241.45,48.72h0c-1.17,1.06,1.21,2,1.78,2.27,1.06.57,2.07-.08,3.18-.42-.14-2.42-3.53-3.18-5-1.85Zm2.13,5.45c.82-.63,3.38.08,2,1,.18.24.24.83.47,1.16-.94.4-3.62-1.33-2.48-2.2Zm748.12,15h0a25.66,25.66,0,0,0,9.73-1.12,4.64,4.64,0,0,0,.34-2.3c-.19-.37-2.14-.66-2.51-.75-1.88-.59-2.62-.32-4.53.29.11-.42-.05-.92,0-1.33-1.65-.07-3.31-.54-4.71.7-.11-3.33-4-1.23-3.52.78.21,1.06,4.23,3.08,5.15,3.73ZM691.82,91.47h0a10.82,10.82,0,0,0,7,3.71c2.41.16,7.48,1.71,9.61-.07-3.37-2.33-6.15-4.32-6.26-9.07-.09-3.72,3.47-6.88,5.55-9.33,1.26-1.49,2.4-3.1,3.58-4.66,1.07-1.37,3.57-2.28,5-3.19,2.76-1.75,4.62-4,7.71-4.94,3.72-1.14,7.48-2.21,11.17-3.49,1.85-.62,9.28-1.94,9.59-5.27.35-4-7.28-2.29-8.66-1.18-3,2.5-6.49,3-10.18,4.06a21.82,21.82,0,0,0-8.82,1.54c-2.43,1-6.39,1.72-8.4,3.51a83.73,83.73,0,0,0-6.65,6.27c-1.44,1.62-2.89,3.23-4.35,4.85-1.13,1.25-.49,2.07-.11,3.8.15.68-3,2.44-3.56,2.83-2,1.44-.15,1.56-1.13,3.45-.69,1.4-2.81.77-2.93,2.65-.17,2.63.1,2.68,1.81,4.53Zm6.7-64.13h0c-3.48-1.28-3.59-1.08-6.56,1.32,1.42.19,2.84.35,4.24.55.78-.63,1.55-1.26,2.32-1.87Zm13.2-8.25h0c-.82-.71-1.66-1.44-2.48-2.17l5-1.24c-2.78-.5-3.87-1.1-6.2.56-1.85,1.32-3.69,2.59-5.59,3.79,1.71.22,3.43.47,5.15.71,1.36-.55,2.73-1.09,4.09-1.65Zm-.08,78.82,1.78-1.1c.65.51,5.54,3.17,4.09,4.46s-5.37-2.09-5.87-3.36Zm4.44-68h0c-.67-1.46-2.12-.51-3.24-.24a15.66,15.66,0,0,0,1.48,1.16l1.76-.92Zm-6.07-7h0c-2.14-.67-4.08-1.49-6.32-1.42-3.1.13-4.2-.28-6.29,2.21,2.05.53,4.09,1.09,6.13,1.63,2.6-.52,4.38-.71,6.48-2.42Zm-30.87,1.88h0c-1.52,1-3,2-4.52,3A20.06,20.06,0,0,0,682,29c-.22-.82-.46-1.65-.7-2.48l8.88-2.09c-1.61-1.09-2.69-2-4.65-1.52s-3.64,1.3-5.52.84c-4-1-6.66.24-10.63,1.46l4.09,1.08,5.65-1.47ZM680.75,107h0c1,1,4.1-1.71,4.88-2.28a7.29,7.29,0,0,0-4-2c-2.33,1-3,2.25-.92,4.3Zm-85.13-8.25h0A10,10,0,0,0,602.68,95c-1.39,0-1.43,1.24-2.53,1.81-.91.5-2.62.26-3.62.37.57.87,0,1.39-.91,1.59ZM176.08,42.83c-1-.56-2.5.27-3.5.51l-.75-.51c1.27-1.84,4.77-2.1,6.66-2.69,1.15-.37,5.57-.46,6,1.29.7,2.89-4.9.79-5.85.9-1.22.16-1,1.35-2.55.5ZM711.64,26c.77.42,1.57.82,2.33,1.24l-3,.47c.32.28.46.81.77,1.08-2,.36-7.46,2.1-8.26-.18s7.34-2.56,8.12-2.61ZM960.38,67.61h0c1.11.72,2.23,1.9,3.53,1.8,2.18-.19,2.1-.31,3-2.51,1.68,2.63,4.12.43,6.53-.5.67-.26,1.5,2.1,2.24,1.95,1.2-.26,2.38-.5,3.58-.74q-.63-1.06-1.26-2.1c1.52.65,2.05,1.2,3.46.33a8.75,8.75,0,0,0,2.89-2.37l-9.62-3.66c-.84-.33-2.29-1.3-3.18-.91-1.59.71-.82,1.81-.55,3.57-2.25-1-6.85-5.31-9.07-3.5-2.05,1.65-3.15,2.17-3.84,4.82-.39,1.46,1.41,2.75,2.27,3.82ZM508.06,178.2h0c.8-.26.92-.9.49-1.73a3.12,3.12,0,0,0-1.07.74c.84.18.3.57.58,1ZM972.79,77.88h0c2.07,1.75,3.51,1.31,6.13,1.23-.58-2.4-.77-2.47-2.73-3.67-.47-.25-3.85-1.78-3.87-1.89-.2-1.67-1.5-3.27-3.41-2-2.22,1.48.46,3,1.43,3.72l-3.83,2.65c1.73-.18,4.87-1.26,6.28-.06ZM732.17,23.21h0c1.92-.44,1.3-1.24,1.19-3.33-.73.07-2.42-.2-3,.23s-.6,1.91-1.19,2.25c-1.61.91-3.28-1.48-4.51.94A9.75,9.75,0,0,0,726,24.61l6.21-1.4Zm-17.07,3h0c1.13,0,1.77-.33,2.5.61,1.27,1.59,4.45-.71,5.6-2,1.36-1.49-1.62-3.66-3.09-3.29A30.29,30.29,0,0,0,713.55,24c.41,1.09.41,2.27,1.55,2.24ZM839.93,44.75h0c1.72,2.35,6.06-.61,8.14-1.37.66-.22,1.77,1.08,2.73.93l5.49-1a5.91,5.91,0,0,0,3.05-1.55c.7-.56-.77-2.72-1.59-2.79-1.79-.19-2.11-.94-3.35-2.39-.53-.62-2.91,0-3.68.06l1.54-1.4c-2.51-.93-4.3-.85-6.16,1.14A37.41,37.41,0,0,0,841.55,43c-.54.57-1.09,1.13-1.62,1.71Zm-23.77-12c-.42-.3-2.78-1.77-2.6-2.18.32-.73,1.08-3.49,1.77-3.68s3.45-.47,3.64-1.18c.54-2.06.32-2.63,2.13-3.2,1.6-.47,3.16-1,4.76-1.46,1.4-.43-.15-1.84,2.22-1.76,2.06.09,5.3,3.59,7,4.84-2.72.8-2.73.46-2.16,3.53.26,1.41,3.15,1.33,4.35,1.6L834.79,32c2.54-1,3.92-2.15,6.35-.81,1.13.63,0,2.1-.42,3.22-.31.84.63,2.66.89,3.5-2.68.8-3.85,1.36-6.44.37-2.84-1.08-4.31-1-7.34-.68-2.53.25-3.48-2.43-5.06-4.48-1.23-1.63-4.79-.47-6.61-.35Zm277,61.49h0c.83-.24,1.55.37,2.36.2,2.71-.54,4.85-.48,6.79-2.61-1.12-1-2-2.23-3.45-2.3l-5.74-.26c-1.33-.06-3.33,1.36-4.58,1.88-.33.14.67,3.61.79,4.18l3.83-1.09Zm-514.38,9.87h0c-1.07.48-2.57.56-2.13,2.21.61-.47,1.23-1,1.82-1.46.11-.25.22-.5.31-.75Zm-8.18,7h0a1.48,1.48,0,0,0,1.78-1c-.51-.56-1.09-.46-1.69.12,0,.27-.06.58-.09.86Zm4.54-5.53c1.1.92,1.35,1.84,0,2.68l-2-.41c.65-.76,1.33-1.52,2-2.27Zm-57.32,56.16h0c.76.21.89.07,1.58-.32-.53,0-.83-.27-1.41-.16l.52-.31c-1.08-.85-1.27.3-1.33.73l.47.67c.06-.19.1-.41.17-.61Zm82.15-65.24c-1.4.08-2.76.61-3.17-1.36a5.08,5.08,0,0,1,2.6.13c1.27.36,1.08-.26,2.1-.82-.07,1-.81,1.38-1.53,2.05Zm-90.87,80.6c-.51-1.08.13-1.61.78-1.44a10.58,10.58,0,0,1-.78,1.44Zm66.4-68.26h0c-1.35.05-2.64-.35-2.58,1.68.85-.55,1.72-1.1,2.58-1.68ZM511,177.54h0a2,2,0,0,0,.56,1.41c.41-.71.19-1.25-.56-1.41Zm-.74-8.18h0c-.17.08-.33.18-.51.25l.72.23A4.11,4.11,0,0,0,509.4,172c-.09.4-1.1.75-1.52,1.33,1.35.27,1.38.83.06,1.11.81.8,3-.06,1.14-1.16,1.13.69,1.67-.36,2.52-1.15.12.15.21.3.32.45-1.27.68-1.49,2.14-1.82,3.52-.21.93.33.95-.14,2.13-.24.6-.72.9-.22,1.38,1,.92.8-1.24.91-2,.15-1.09.09-2.27,1.4-2.77-1.51,1.24-.24,2.49.77.3a5.17,5.17,0,0,1,.38,1.13c-.88.07-.71.39-.52,1.27.29,1.2.49.76,0,2.22s-1.84,1.61-.2,2.88l-.06-1c.78.28,2,1.27,1.55-.08,1.19.81,2.67-.78,4.38-.53-2.91.69-1.36,5.2.42,3.84-.81,1.12-.72,3.47.26,4.14l-.34.11c-.48-.69-.32-.27-.88-.58.07.26.13.51.19.77-1.07-.2-2-.65-2.93.12a1.23,1.23,0,0,0-1.73-.8c1.22,1,.62,1.94-.48,2.69.72-.14,1.43-.29,2.14-.41-.21,1.43.62,1.8-.34,3.15-.52.71-2.64,1.11-3.44,1.45.13.35.19.95.14.79.93,1.61,2.15-.49,3.55.29l-.53.41c.57,0,2,.89,2.26.81l3.1-1.06a4.64,4.64,0,0,0-1.42,2.27c-2-.27-4-1.14-4.68,1.4-.34,1.35-2.56,2.44-3.5,3.54,1.73,1.21,3.61-2.36,6-.58,1.37-3.43,1.9-.64,4.38-1.85.74-.38,2.27-1.57,3.07-1.54,1.06.07,1.31,1.23,2.5,1,2-.52,3.42-.45,5.57-1.34,2.75-1.13-1.47-2-2.3-2.11,2.08-1.57,3.51-2.35,3.82-5.17s-4.57-.94-5.05-1.48c1.9-1.36-.94-3.78-2.37-3.78a1.64,1.64,0,0,1,2.21.7c-.6-3.7-3.69-4-4.63-7-1.19-3.87-2.82-4.2-6.31-4.69a2.13,2.13,0,0,1,2.27-.93c-1.06-2.22,3.91-4.92,2.6-6.93-.84-1.28-6.59-.62-7.23.69l-.3-.25c.42-.37.65-1,1.13-1.35a8.91,8.91,0,0,0-1.5-.45c.35,0,.71,0,1.06,0,.27-1.38,2.89-1.72,3.25-3.81a7,7,0,0,0-4.47.83c-.66-.35.06-.47-.93,0-.27-1.43-1.47-.23-1,.93-.31.07-.63.11-.94.18-.15.37-.21.61-.29.8.41.38.74.93,1.17,1.27a2.24,2.24,0,0,0-2.21-.19c.29.51.33,1.21.63,1.72l-.87-.18c-.14.77.25.71.84.93Zm3.79,14.41a1.28,1.28,0,0,1-.63,1.71l-.59,0a2,2,0,0,1,1.22-1.69Zm66.38-76h0l3.6-3.85-2.5,2.1c-1.06,0-1.45.66-1.1,1.75Zm6.27-7.55h0a18.63,18.63,0,0,1-2.06,1.92l2.16.1c.57-1,1.46-1.47-.1-2Zm-4.21,2.2c1-.33,1.71-.77,2.34.54-.74.59-4.07,3.92-3.9,1.44.1-1.66.08-1.5,1.56-2Zm7.2-2.88a1.56,1.56,0,0,1-1.54,1.07,6.76,6.76,0,0,1-1.07-.48c.4-1.31,1.64-1.19,2.61-.59ZM579,106.31c1-.65,1.25,1,1,1.9a1.67,1.67,0,0,0-2.13.82c-.84,1.11-1.29.68-2.57.46.77-.82.59-.46.73-1.52.28,0,.57,0,.85,0-.33-1.07.14-1.91,1.17-1.94-.16.79-.29,1.55-.42,2.34,1.12-.55.69-1.58,1.37-2Zm-2.84,4.53h0c0,1.51-.81,1.82-2,2,.47.33.29.49.87.74a5.71,5.71,0,0,1-.67,1.13c1.28-1.31,2-1.8,1.76-3.85Zm1.43-.49h0a4.81,4.81,0,0,0-1.13-.16,4.67,4.67,0,0,0,.17,1.63c1-1,2-2,3-3.07-1-.08-1.62.59-2,1.6ZM592,100.05c-.9.41-1.8.86-2.71,1.28l-1.93.62c1-1.21,3.27-2.77,4.64-1.9Zm1.24-1.79h0a3.89,3.89,0,0,0-1.44.07c.11.32.2.64.32.94.83.62,1.25.15,1.12-1Zm155.9-21.11h0c-2,.23-1.5,1.09-1.7,3.19l5.3-.93a3.12,3.12,0,0,0-3.6-2.26ZM934.92,273.94h0c.12.82.22,1.62.33,2.46,2,.21.46-2,1.89-1.89,1.74.21.81,2.46.37,3.17-.93,1.45-1.12,6.18,1.4,4.37,2-1.48,2.74-4.16,3.83-6.5.26-.59-.84-2.11-1.08-2.54-.69-1.18-1.34.18-2.3-1.22,1.58-1.46,3.37.79,4.17-2.1.82,1.38,1.44.81,2.47.19.52-.32,2.29-.69,2.5-1,1.06-1.32,3.38-.47,4.91-.34-2.34,2-.91,3.39.84,4.93.93-1.33,1.79-3.7,3.64-3.34-1.08-.94-1.43-2-.12-2.89,1.48,2.41,4.48,1.32,5.94-.73l1,2a16.07,16.07,0,0,1,2.59-3.32l-.48,2.21c1.56-.54,1.82-1.85,3.13-2.58.18-.09-.27-3.22-.08-4.09.37-1.74,1-1.79,1-3.9,0-1.33-.31-3.53,1.61-2.55,0-1.34-.37-2.33.69-3s.79-2.2.83-3.65c0-1-1.11-2.47-1.55-3.36s0-1.88.23-2.9c-1.65-.87-2.62.4-2.16,2.16-1-3.75-3.26,1.16-3.64,2.59-.31,1.15,1.09,1.67.89,2.27-.49,1.52-1,3.07-1.48,4.62a8.67,8.67,0,0,1-3.86,5.05,8.83,8.83,0,0,1-3.38,1.27c-1.16,0,.2-2.07.57-2.4-1.66.64-2.27.43-2.32,2.35,0,1-1.58,2.35-2.16,3.09-.73.94.34,1.78-.92,2.34-1.81.79-1-.71-2.16-.59-2.07.23-6-.29-7.26,1.61-1.47,2.17-3.4,3.57-5.75,3.5.94,2.58-2.55,3.66-4.13,4.73Zm-3.14,110.31h0a16.6,16.6,0,0,0-3,2.93c-1,1.68-.33,2-.06,3.38a12.86,12.86,0,0,1,.18,3.77c-.1.77,1.8,1.84,2.34,2.33-.23-1.55-.86-5,1.75-3.89-.39-.33-3-2.09-1.7-2.43a1.33,1.33,0,0,0,0-2.64,10.36,10.36,0,0,1,.88-1.42,20,20,0,0,0-.33-2ZM1002,477.06h0c-1.84-1.67.67-3.91-2.21-4.89-.32-.12-1.82,1.89-2.15.76-.41-1.4-.83-2.75-1.25-4.11-.75-2.49-.72-3.89-2.78-5.09-.83-.47-6.52-3-6.52-3.92,0-2.36.63-5-.9-6.8-2.14-2.5-2-3.49-2.17-6.95-.12-2.19-2.8-3.35-4.28-2.12a54.43,54.43,0,0,0-4.09-13.37c-2.35.57-2.53,4.85-3.12,7-.61,2.29-.1,5,0,7.41.11,2.87-1.54,11.93-5.45,10.5-1.39-.5-2.59-2.95-4-3.83q-3.91-2.33-7.84-4.67c-2.41-1.43-1.38-2.27-.69-5.23.55-2.38,1.87-3.59,3.4-5.39-2.46-2.4-3.07-2.54-6.33-2.85a54.13,54.13,0,0,0-7.64-.58c.09,1.19.18,2.37.29,3.57-2.84-.42-5.38-1.93-7.19.7s-2.22,5-3,8.17c-2.45-1.29-4.87-2.6-7.32-3.89-.89-.47-3.9,2.94-4.6,3.54-4,3.38-9.3,6.3-11.28,11.48-1,2.65-1,4.82-3.56,5.43-3.36.78-6.75,1.58-10.12,2.35-2.32.55-3.57,1.54-5.6,3-2.52,1.83-3,2.51-4.21,5.62-.42-1.06-.84-2.08-1.26-3.12-1.69,4.14-2.74,7.65-1.06,11.85,1,2.51.73,2.89-.13,5.51-.59,1.84.59,3.19,1.37,4.89a45.11,45.11,0,0,1,3.93,12.83c.25,1.75,1.72,6.27,1.11,7.81-.22.56-4,2.7-2.15,4.12,1.52,1.2,3.25,3.35,5.18,3.35s4.2.65,5.69-.8c2.15-2.13,2.71-2.9,5.48-3.17,2-.2,4-.5,6-.56,1.52-.05,3-.08,4.53-.14.46,0,1.16-2.14,1.4-2.62.77-1.65,3.78-2.33,5.29-3.06,1.68-.82,4,.46,5.54-.43,1.18-.71,3.52-2.88,4.85-2.71,4.7.62,8.89,1.12,13.35,2.81,2.83,1.08,3,1.6,4.62,4.47a44.14,44.14,0,0,0,3.31,5.28,47.09,47.09,0,0,0,6.49-8.71c1.15,3.56-1.15,6.37-3,9.33,3,.66,2.83-1,4.22-3.88.17,1.8-.33,6.22,1.51,6.22,1.63,0,2.82,3.41,3.13,4.89,1.07,5.07,4.71,6.44,9,7.13,2.77.45,3.16.8,5.34-1.08,2.48-2.12,2.28-1.15,4.36,1.37,1,1.19,3.62.24,4.58-.73,2.21-2.22,2.53-2.43,5.5-2.52,5-.17,4.53-7,5.32-11.22.68-3.7,4.71-6.41,5.61-10.06,1.07-4.33,3.32-9.58,3.45-14.05.15-4.26-1.33-9.16-2-13.37-2-1.81-4-3.61-6-5.44Zm-78.53-72.33h0c-1,2.81,3.64,1.58,4.24,1.34.11-1.7-3.58-3.21-4.24-1.34Zm16.35,27.89c1.63-.44,1.22,1.15.19,1.8s-2.42,0-3.74,0c.16-3,2-.78,3.55-1.84Zm68.39-22.33h0c.74-1.7,1-1.77.07-3.32-.15-.23-.74.19-1-.2a5.2,5.2,0,0,0-.8-1.26,56.78,56.78,0,0,0-5-3.22c-.6,2,6.74,2.91,6,6.51a9.39,9.39,0,0,0,.74,1.49Zm-15.9,132.37h0c-1,.38-3.86,2.22-4.78,1.8l-5.09-2.28a17.27,17.27,0,0,0,1,8.25c1.32,3.1,2.82,3.78,5.61,4.3,3.4.66,6.72-11,3.29-12.07Zm5-130c1.17-.05,1.94-1.86,2.15-1.4-1.39,3.36,4.19-.73,4.38-.7,0-.84-.42-4,1.3-2.86,1.29.86,2.36,2.73,0,3.24,1.72,1.76-1,1.56-1.27,2-.63,1.41-2.4,2-3.8,2.37-1.84.44-5.71-.59-6.52-2.57,1.21-.44,2.48-.08,3.74-.12Zm-11.61-.35c1.55,1.68,6.8.4,6.42,4.41-.93.12-1.88.21-2.81.33.24.7.49,2.2,1.08,2.6s1.91.92,2.24,1.61c1.39,2.8,1.24,3.54,4.15,3.64-.83,1.86.9,1.66,2.11,1.94-1.24,1,1.32,2.79,2.12,3.65-1.06.37-3.13-1.22-4.45-1.44-1.91-.34-3.76-.17-5.17-1.65-1.79-1.88-3.57-3.75-5.33-5.63-.91-.95-4.68-.75-5.94-.92-1-.17-1.54,3.39-2.69,4.12-2,1.31-4.19.69-6.54.58-1.4-.08-2.25-3.55-3.4-3.44-2.23.25-4.45.47-6.68.68.4-3.28.67-3,3.59-3.79-.83-2-1.65-4-2.51-6-.48-1.16-3.07-1.65-4.09-2.09-2.49-1-5-2.1-7.43-3.16-2.12-.89-2.09-.8-2.53-3.32-.89,1.08-1.76,2.12-2.61,3.2-1-1.69-2-3.36-3-5.06,2.37-.55,3.71-1,6-.23a3.73,3.73,0,0,0,.15-1.48c-1.88.09-4,.66-5.72-.28-.67-.35-.13-2-.65-2.08-1-.15-2-.28-3-.45,1.56-3,4.5-3.64,7.33-3,1.86.45,2.4.06,2.67,2.11a19.47,19.47,0,0,0,1.37,5.12c.62,1.64,1.38,1.72,2.9,2.45.52.24,2.43-2.89,2.85-3.45,1.17-1.57,4-2.89,5.74-2.23,3.6,1.37,7.19,2.76,10.8,4.12,2.23.85,5,1.42,7.07,2.71l4.17,2.63c1.42.89.76,2.65,1.78,3.76ZM974.41,200.2h0c0,2.21.24,4.25-.71,6.21-1.22,2.53-.26,2.58.26,5.15a3,3,0,0,1-.59,3.06c-.42.68.2,1.81.2,2.6,0,2.49-.41,3,.56,5.43.31-1.33.3-3.46,1.9-3.71s2.41,1.73,2.33,3.1c1.54-1.61-.34-4.13-1.21-5.61-1.12-1.92-1.83-2.3-1.15-4.46.94-3,.64-3.81,3.45-4.34,1.84-.34,1.65,2.79,3.43,2.83a29.87,29.87,0,0,1-2.86-7.93c-.36-1.38-.71-2.78-1.07-4.18-.24-.95-1.34-1.7-1.51-2.66-.5-3.05,1.88-4.55.34-7.6-.83-1.6.16-6.05-2.73-3.82,1.1,1.09,1.79,2.84.61,3.95-.49.45-.64-.52-1.56.22s-.66.89-.33,2.15c.39,1.45-.5,3.92-.75,5.42s3,2.48,1.39,4.19ZM917.52,360.33h0c1.46.29,2.42-2,.54-2.16-.55.5-2.32,1.79-.54,2.16Zm-2.22.5c-.32-2.09,1.36-4.52,2-6.49.18-.08.34-.18.51-.26-.24.9.12,2.73-.48,3.29a5.84,5.84,0,0,0-2,3.46Zm5.17-6.95c-.12,1.67,1.44,3.44.63,4.66-.19-.47-.42-.9-.63-1.34.11.49,0,1,.1,1.54-1.34-.76-.4-4.16-1.73-3a4.16,4.16,0,0,1-.53-2.41,1.65,1.65,0,0,0,2.16.55ZM915.81,351h0a4.37,4.37,0,0,0,1.7,1.83,6.25,6.25,0,0,0,.09-1.93c-1.27.09-1-1.42-2.68-1.3a2.05,2.05,0,0,1-.41,2.5,8.13,8.13,0,0,1,1.3-1.1Zm2.36-1.15h0c0,1.24,1,1.64,1.85,2.35s-.09.92.51,1.71c2.12,2.82,1.88-1,1.55-2.72-.54-2.05-2.4-1.41-3.91-1.34Zm-7.54,2.68a5.81,5.81,0,0,1,1.65-.13c2,.79,2.62,1,3.78,3,.48.85-1.08,3.31-1.07,4.57,0,.88.44,2.24-.46,2.39s-.68-.91-1.46-1.27c-2-.92.13-3,1.06-4.23-3.67,1.76-3.21-.76-3.5-4.3Zm-8.09,45.4h0c-.43,1.31-.11,2.19-.77,3.63-.91,2-1.44,2.17-.25,3.93.68,1,2.35-.34,2,2-.14,1-1.21,4.62-.77,5.34s2.94,1.06,3.38.22c.22-.38-.48-1.6-.46-2.09s.62-1.12.68-1.69c.14-1.17-.14-2.7,0-4s-1.64-2.21.92-2.52c1.41-.16.31,2.5.49,3.12.49,1.5,2.25,1.24,1.82,2.78s.64,1.91,1.83,1.63c-.57.14,2.58-2.47,2.21-1.63.91-2.11-1.25-1-1.89-2.62-.18-.39.91-1.18.64-1.67-.38-.74-.78-1.47-1.17-2.22-.64-1.21-1.28-1.14-2.11-2,2.85,1.07,3.9-4.68,6.43-3,.69-2.51-1.49-1-2.41-1-1.21,0-1.25.53-2.18.78-1.11.3-.54-1-1.63.18-2.74,3-5.62-2.27-3.51-4.84,1-1.23,2.31.19,3.7.06,1.57-.11,3.63-.78,5.07,0,3.51,2.06,5.5-1.85,6.58-4.92-1.47,0-2.65,2.31-3.93,3.17-.72.45-2-.39-2.73-.44-1-.06-.8.64-1.94.25-1.44-.5-4.07-2.06-5.49-1.14-1.85,1.2-2.27,2.24-3.31,4.33,1.3,1.91-.67,2.76-1.23,4.43Zm3.34-51.3h0c.91,1.55,1.8,3.1,2.7,4.66,1.83-2.17,1.56-3.3-.53-4.72l-2.17.06Zm-17.64,75.05h0c0,1.8,1.25,3.3,2.55,1.6s-1.41-2.06-2.55-1.6Zm80.82-188.89c1,.28,1.93.53,2.89.79a3.56,3.56,0,0,0,.34-2.5c-.09-1,1.52-2,1.22-2.86s-1-6.43.82-3.91c1.47,2,2.5,3.93,4.62,5,3,1.52,3.1,2.19,5.48-.3.51,1.47-2.09,4.38,1.36,4.28a5.08,5.08,0,0,1-4.61,1.8,4.34,4.34,0,0,0-2.35,1.31,15.76,15.76,0,0,0-.85,2.68c-1,.49-3.54-1.66-4.34-2.42-.53-.53-1.91.34-2.47.62s-1.61-.76-2.61-.42c-.31,2,1.75,1.25,2.38,2.38.54.92-.56.83-1,.69-.67-.18-1.28,1.43-1.69,1.29s-1.52-3.8-1.42-4.14c.34-1.26.52-1.26,1.6-1.84.54-.3.53-1.81.66-2.47Zm-410.45-54.2h0c.12.8,1.45,2.6,2.26,2.4a1.07,1.07,0,0,0-.07-2.08c-.28-1.15-1.24-.85-2.19-.32Zm77.89,85.85h0c-1,.46-2.54,1.58-3.63,1.49-.64-.07-3.07-.58-3.55.38-1.62,3.19,5,1.35,5.6,1.16-.84-1.52.66-2.19,1.58-3Zm-26,2.57h0c.07-1.19-2.28-1.61-3.33-1.46-2.12.3-2.69-.1-4.59-1.22a4.69,4.69,0,0,0-.74,1.62,24.15,24.15,0,0,0,8.66,1.06Zm-47.62-89h0c-.28.88,0,2.46,1.06,2.4,1.32-.11,1.07,1,1.33,2.33.24-1.51.08-3.09,1.82-3.25-.37-.24-.59-.77-1-1,4.31-.89-2.72-4.79-.64-.69-.92-.07-1.25-.5-.78-1.41a3.14,3.14,0,0,0-1.06,0,1.32,1.32,0,0,1-.76,1.64Zm38.5-14.22h0c-2.14-.67-3-.5-5.14.15.73.81,1.3,1.59.78,2.87.93-1.63,2.88-2.06,4.36-3Zm-46.5,82h0c.09.47-.76,1.37-.86,1.87,0,.25.78.68.74.94-.22,1.46-1.46,1.59-.26,2.73.94.88,1.91,1,2-.49.07-.87,1.35-.05,1.54-1.61s.4-3.2.59-4.81c.4-3.29-3.32-1.31-4.21-.72l-1-.36c-.59,1.76,1.14,1.24,1.4,2.45ZM1122.72,136.2h0c-.66,0-3.47-.66-4-.2-.7.66,0,2.12.5,2.53,1.74,1.39,4.12-.67,5.24.77,1.3,1.66,3.34,2.32,4.28-.43-1.83-.88-4.06-2.56-6.07-2.67Zm-538,35.4h0a6.32,6.32,0,0,1,2.63-2.11c-1-1.16-.09-1.82.63-2.79-3.12-.77-3.43,2.4-3.26,4.9Zm6.51-15.53h0c-.06-.35-.1-.71-.16-1h.5c-.25-2.09-3-.54-.34,1Zm-36.51,82h0c-1.15,1,.93,3,1.95,2.93a12.22,12.22,0,0,0,.73-6.28c-.91.19-.11.93-.64,1.63a11.55,11.55,0,0,1-2,1.72Zm460.94,176h0c-.87-.44-.71-1.76-2-2.17a3.13,3.13,0,0,0,.68,2.51c.51.6.26,1.49.59,1.87.71.84,3.57,1.68,2.64-.43a5.22,5.22,0,0,0-1.88-1.78ZM948,273.12c-1.47.65-1.8,3.82-3.79,2.5-.91-3,0-2.44,1.15-4.94.8.61,5.91-2.71,5.7,1.11,0,.53-1.24,1.66-1.55,2.11s-1.09-1-1.51-.78ZM929.5,404.46h0c-1.48,1.92,1.43,1.92,2.24,1.81.59-.07.35-1.39.91-1.17s1.48.78,2.14.6c1.89-.5,2.44.24,4.09,1.38.73-3.32-2.9-3.64-4.9-4.17-1.65.3-3.38.14-4.48,1.55Zm142.37,141h0a7.48,7.48,0,0,0-1-3.57c-1.48.81-2,.82-2.42,2.57s-.93,1-1.88,2.34c-.68.94-.56,2.57-1.19,3.57a15.57,15.57,0,0,1-2.86,2.52,13.35,13.35,0,0,1-2.88,2.25c-.79.36-2.65.79-3.21,1.52q-2.65,3.55-5.28,7.12c-1.83,2.43,3.49,1.78,4.22,2.62,1.06,1.22,4.89,2.54,6,.73,1.21-2,3.42-4.42,4-6.72.83-3.19,2-3.67,4.51-5.55a1.64,1.64,0,0,0,1.43,1.33c-1-2-1.12-2.16.18-3.85s2.59-3.38,3.9-5.08c-.37-1.24-.75-2.49-1.12-3.74-.81.66-1.61,1.31-2.41,1.94Zm-16.61,22.34c2.79,2.18-.1,1.66-1.15,2.65.8-1,.16-2.29,1.15-2.65ZM1087.41,530c2.5.33.54,4-.56,5.11-.33.34.46,1.66-.53,1.19-.82-.4-2.55-.26-2.49,1.17.08,2.34-1.84,4.83-2.84,6.87-1.2,2.45-3,1.6-4.64.57.87-1,3-3.24,2.09-4.94-.28-.51-1.91-.59-2.41-.89a18.82,18.82,0,0,1-2.22-2c1.88-1.43,2.21-2,3.06-4.33.62-1.65-.56-3.35,0-5.07-1.65.54-3.16-4.92-3.87-6.42l-.74.59c-.65-1.42-1.33-2.81-2-4.19,1.25.34,1.9,1.66,3.23,2.16,2.66,1,1.29.72,2,3.14a7.25,7.25,0,0,0,1.25,1.77c.44.66-.15,1.72.17,2.37,1.14,2.27,2.34.81,2.15-1,1.81.87.65,4.16,2.4,4.61,2.88.73,3.35.93,5.87-.7ZM535.48,248.59h0c.63.49,1.26,1,1.91,1.51.56-.47,1.13-.92,1.69-1.4-1.17-2.17-1.9-1.09-3.6-.11Zm581.81-122.9c1.2.19,3.29,1,4.44.71s2.92-2.37,4-3.27c-1.81-1.48-3.84-4-6-4.72a21.84,21.84,0,0,0-8.18-1.23c.41,1.37.78,2.72,1.17,4.08-3.32,0-3-1.08-4.2-4.45-1.12-3-1.5-3.13-4.11-4.64-4.25-2.43-8.48-4.69-12.86-6.83-3.79-1.84-7.81-4.76-12-5.08l-16-1.26c.35,2.49.7,5,1,7.47-1.14.12-3.39.88-4.45.46-1.46-.6-3.13-3.09-4.31-4.23-1.61-1.6-1.39-1.57-3.23-.19-1.19.88-3,0-4.42-.18a25.1,25.1,0,0,0-9.88.19c-3.24.57-5.68-.61-8.83-1.65.62-2.07.72-2.53.1-4.58s-1.44-1.66-3.24-2.18c-3-.88-5.93-2.33-9-1.81l-11.19,1.91c-1.65.29-5.41-5.83-7-6.75-2.68-1.52-6.79-1.77-9.74-2.52a68.48,68.48,0,0,0-8.48-2.17l-11.24-1.46c-.86-.11-2.65,3.2-3.19,3.94-.73,1,1.12,3.08,1.68,4.07-2,.81-3.91,1.6-5.84,2.41-1.22.49-3.75-1.52-4.87-2.11-1.59-.78-3.49.41-5.08.91-2.52.8-2.9.14-5.2-1.39s-1.91-1.18-3.54,1c-.6.78-3.12,5.06-4,4.58-1.9-1.08-3.79-2.16-5.69-3.26-.57-.31-.74-5-.72-5.87,0-1,1.36-4.89.74-5.57-1-1.16-2.89-4.35-4.26-4.81s-4.38.82-5.81,1.11a35.54,35.54,0,0,1-5.93.14c-2.81,0-2.51-.06-3,3.12-.22,1.57-3.62.94-4.85,1l-6.2.31c-1.34.09-3.65-1.7-4.92-2.32l3-1.74c-5.17-.56-10.43-1.65-15.62-1.15-4,.37-4.74.49-8-1.94-2.21-1.62-5.06-.14-6.91,1.45,1.54.23,3.09.46,4.65.71L858,81,884.12,65c.58-.38,1.11-2.43,1.42-3.1s-1.56-2.36-1.91-2.83c-1.39-1.84-4.46-3.11-6.3-4.38s-4.16-.79-6.27-.85c-1.39,0-2.78-.12-4.19-.16-.67,0-.37,2.67-.39,3.37-1.8-.13-3.6-.23-5.39-.35l4-3.51c-3.24-.45-6.49-.93-9.73-1.39l6.14-1.87c-1.92-2.81-6.61-2.81-9.2-1.48-2.15,1.11-4.34,2.2-6.5,3.33-1.41.71-.63,3.51-2.35,4.18-7.34,2.8-14.75,3.73-22.44,5.13-4.06.78-8.82.9-12.72,2.36a37.14,37.14,0,0,0-5.37,3.18c-2.41,1.43-2.16,1.46-2.25,4.58,0,1.6.58,3.25-1,3.42l-7.12.72q-6.31.63-12.6,1.29c.24,1.42.49,7,1.76,7.19,1,.17,3.64,0,4.36.74s1.12,3.07,1.49,4.07c-1.15.18-2.58.8-3.59.12a20.14,20.14,0,0,0-3.25-2c-3.74-1.41-5.3-2.33-9.06-1.14-1.23.4-6.65,2.72-3.52,4.19a84.71,84.71,0,0,0,8.2,3.39c-2-.14-9.64-.16-10.68-2-1.53-2.75-1.69-2.68-.24-5.47.62-1.19-1.46-4.06-2.52-3.79.38.86,1.61,4.23.17,4.82-1.94.81-3.7,1.11-4.9,3-.91,1.43,1.73,4,2.57,5.23,1.08,1.58-.75,3.71-1.53,5.33-.59,1.3.64,3.68,1,5,.12.45,5-.62,5.61-.72,2.41-.37,2.64-.35,4.68,1.11,1.55,1.11,1.31,3,1.6,4.89-1.27-1.46-2.55-2.93-3.81-4.41-.74-.87-3.46.6-4.41.89-5,1.53,1.09,5.15-1.26,7.55-2.13,2.15-5.33,6.13-8.18,7-3.61,1.19-6.64-.72-9.32-2.91,1.1.13,3.94,1.11,4.85.54l6.27-3.84c1.21-.75,1.86-3.91,2.45-5.25,1-2.44-1.16-2.67-3.07-3.94-1.58-1.08,1.64-10,.66-12-.53-1.11-2.55-3.86-2.11-5,.83-2.26,1.66-4.55,2.49-6.83-2.17-.21-11.4-2.41-12.14-.32-.55,1.66-1.11,5.45-2.43,6.51-2,1.56-3.9,3.12-5.84,4.65.89.58,4,1.76,3.47,2.87-.57,1.34-2.66,4.11-1.35,5.07l5.93,4.44c.81.58-.2,4-.32,5-1.71-1.28-3.65-3.44-5.58-4.22-2.7-1.06-5.37-2.13-8.06-3.2-4-1.58-9.56-2.2-13.45-.5,1.69,2.21,2.8,2.4,1.1,4.69-1.83,2.45-1.72,2.32-4.48,1.49l1.16-2c-2.52-.56-3.16-.65-5.48.46-2,1-3.34.65-5.57.39-1.48-.17-2.38,3-4.09,2.62-2.64-.66-2.62-.64-3.48-3.47-3,1.37-6,2.72-9,4.08l-5.91,2.68c-.7.33-2.58.75-3.08,1.41-1.11,1.46.36,3-1.68,3.28-1.67.26-3.36,1.17-4.49-.28s-2.79-2.44-1.85-4.06c.58-1,3.77-.7,4.85-.81-1-1.33-2.1-3.84-3.73-4-2.18-.3-4.37-.56-6.54-.85.4.49,2.33,2.25,2.17,2.83-.38,1.65-.78,3.29-1.19,4.95.11-.36,1.87,2.47,2,2.76.37,1-.49,2.89-.72,3.92l-5.4-1.62c-1.07-.33-2.74,1.41-3.63,2l-5.1,3.42c-.24.16,1.54,4.57,1.74,5.15-2.25-.79-4.52-1.55-6.78-2.35-2.77-1-2.92-1.44-5.18.61,1,1.26,1.5,2.57,3,2.57s2.17,2.3.73,2.89c-2.43,1-5.62-1.83-8.11-2.91-2.18-.94-1.77-5.81-1.77-8.23s-4.56-5.42-6.15-7a68.28,68.28,0,0,0,16.13,5.49c3.14.73,4.18.59,7.36-.46,1.39-.47,1.67-1.3,2.55-2.63,1.4-2.16,1.53-2.1.7-4.61s-3.71-4-5.91-4.65a42.53,42.53,0,0,1-8-3.79c-2.92-1.66-4.37-2.47-7.62-2.6-1.55-.05-7.28,1.24-6.79-2.08,1.13.28,2.64,1.3,3.06-.29-.74-.37-2.88-2-3.4-1.24-1.14,1.53-2.77.78-4.5.62-.72,0-2.74.59-2.92.19-.66-1.6-2.23-1.1-3-2.48,1.47.14,3.48.78,4.92.47.64-.14,3.79-1.74,2.09-2.42-2-.79-4-1.59-6-2.36s-.56,3.58-2.9,1.8c.54-.92,1.08-1.82,1.63-2.73-.62,0-2.89-.56-3.28,0-.86,1.17-1.75,2.36-2.65,3.54-.18-1-.38-2-.58-3-1.25,1.58-2.95,4.88-4.91,5.25.8-3.15,1.73-4.2,3.86-6.54a9.48,9.48,0,0,0-5.44,1c-1.57.92-2.46,3.72-4.19,4.23a104.16,104.16,0,0,0-13.12,4.8c-3.89,1.77-6.54,5.36-9.44,8.64s-6.13,6.22-8.53,10.11-4,7.93-7.32,11.11c-1.58,1.49-3,3-4.47,4.62-1.59,1.79-3.4,2.46-5.49,3.49a24,24,0,0,0-4.85,2.86c-2.68,2.27-2.94,2.29-3.12,6-.21,4.32,1.47,8.52,1.61,12.86.12,3.53,5.92,4.25,8.18,2.86,1.47-.89,2.62-2.47,4-3.49,2-1.48,2.54-1.74,3.21-4.33.32,1,.46,2.59,1.41,2.82s.22,1.93.45,2.91a15.81,15.81,0,0,0,1.45,3c.33.75,0,1.94.53,2.57,1.11,1.48,3.86,3.77,3.17,5.68-.35.92.17,2.43.3,3.39.27,1.83.43,1.42,2.09,1.3,1.07-.06,1.76.29,2.08-.87.24-.93.2-2.08,1.12-2.25,2.35-.51,4.38-.51,5.55-3.23.86-2,.77-5.17,1.09-7.33.4-2.7,1.92-3.36,3.88-5.07,1.14-1,3.77-2.31,3.07-3.86-1-2.19-4.15-2.13-5.25-4-2.56-4.43,1.45-9.2,3.83-12.19.8-1,10.26-5.91,9.15-7.92-1.26-2.2-.45-3.59,1.09-5.33,2.44-2.72,2.75-2.59,6.24-2.46a5,5,0,0,1,5.12,3.82c.59,2-1,1-2,1.52s-2.31,2.87-3.12,3.85c-1.56,2-3.76,3.14-5.39,5-.65.76-2.71,2.33-2.91,3.32s.9,3.56,1.17,4.62a7.75,7.75,0,0,1,.06,3.86c-.35,2.33-.54,2.16,1.48,3a4.72,4.72,0,0,1,2.93,2.57c.32.54,2.44-.23,3-.34,5.14-1,10.3-2.21,15.32-3.18-.27.35-.27,1-.52,1.37,1.43.61,4.75,1.2,5.26,2.87-.87-.13-2.64-.84-3.4-.35-1.11.7-2.49.33-3.44.92-1.48.95.63,1.85-1.84,1.54l-5.4-.67c-2.42-.31-5.13,1.08-7.31,2-.35.15.3,2.78.64,3.17a15.49,15.49,0,0,0,1.4,1.5c.25.19.91-.64,1.26-.36.19.14-.43,3.09-.3,3.83.18,1.14-.74,3-2,2.9-2.33-.17-3.08-5.35-6.22-3-1.23.91-.63,2.35-1.38,3.24a4.44,4.44,0,0,0-1.06,3.28c.09,1.59,2.2,8.08-1.32,6.37a5.68,5.68,0,0,0,1.38-2c-.52.83-1.46,1.16-2.18,1.81-.27.24-.85,0-1.1.28s-.44,1.49-.86,2c-1.07,1.28-3.92,1-4-1.11.39.22,1.15.46,1.34.59-2-1.76-6.53-.5-8.06,1.53-.94,1.25-5.76,1.34-7.12,2.21.62.05,1.24.13,1.87.18a3.86,3.86,0,0,1-.21,1.22c-1.09-.62-2.24-.9-2.62-2.19a4.06,4.06,0,0,0-2.77-1.82c-1.91.23-3.81,3.4-6,2.1.31-.65.61-1.32.92-2-2.26,1.08-4.54-1-4.95-3.44-.54-3.34,2.42-4.17,4-6.67-2.68-.66-2-4.51-.8-6.32-1.77.92-3.3,2.89-5.15,2.94-2.42.1-2.87,2.7-2.77,5,.07,1.39-.16,2,.83,2.78,1.25,1,.36,1.83.82,3.32s1.65,1.33.28,2.4c-.83.65.86,2.07,1.46,2.3-1.12.14-2.46-.27-2.16,1.32a9.71,9.71,0,0,0-2.61-.28c-.56.08-1.11.18-1.67.24s-.21,1-.5,1.15c-2,.64-3.69-.55-5.39,1.5-.52.6-1.86.44-2,1.24a8,8,0,0,1-1.59,3.81c-.3.37,0,1.07-.31,1.36-.13.14-1.61.29-1.6.43,0,.67,1.6.86,2.16,1a6.71,6.71,0,0,0-4,.49c-.84.4-3.77,1.08-4.18,1.74-.93,1.51,1.06,2.75-.83,3.68-1.33.63-3,1.05-3.94,2.33.41.06.8.37,1.22.39a6.85,6.85,0,0,1-4.31.59c-.92-.12-.8-.18-1.12-1.18-.24-.73-1.44-.5-2.09-.57a14.38,14.38,0,0,1,1.25,3.82c.13.85-2.93,1.35-3.5,1.47-1.6.41-.19-2.7-2.65-1-1.2.84-2.67.62-4.07.72a2.06,2.06,0,0,0,1.34,2c-.34,0-.68.28-1,.32a1.78,1.78,0,0,0,2,1c1.22-.07,1.58.43,2.57,1.2.23.17,1.64.23,2.2.51s0,1,1.26.68c-.28.73-.1,3.12,1.23,3.53,2.29.71,1.86,1.5,1.89,3.94s.44,8.87-2.79,9.56a10.48,10.48,0,0,1-4.53-.49c-1.66-.61-3.19.33-5-.26-2.35-.76-3.22-.62-5.64,0-1.7.43-2.62-2-4.57-.2a4.64,4.64,0,0,1,.36.66c-.74.12-2.85.13-3.27,1.12s.29,2.8,1.41,1.9c-.35,1.88-.73,3.95,0,5.78s-.66,5.13-1.16,7.17-1.4,2.54-.17,4.42c.27.41.95-.49,1,.24s.1,1.35.16,2a13.53,13.53,0,0,1-.46,3.58c1.45-1.09,2.64.29,4.25-.63,2-1.16,2.79,1.55,4.39.79-1.62,1.16.72,4.07,2,3.64s2.53-2.72,4.37-2.64a46,46,0,0,0,6.21,0c.64-.07,1.41-1.92,1.78-2.5s2.07-.72,2.77-.9c-.59-1.22,1.38-2.84,2.11-3.86,1.22-1.61-1.3-2.52-.72-3.5,1.95-3.35,2.94-6,6.18-7.65,1.1-.55,3.8-1.28,4.56-2.31s-.44-4.13,0-4.49c.76-.7,2.35-2.86,3.37-2.55,2,.66,4,1.33,6,2,.77.25,6.79-4.18,7.4-4.91.84-1.05,2.27-.59,3.42,0,2.23,1.15,2.23,1.32,2.85,4,.65,2.82,3.51,3.85,5.61,5.89,1.17,1.17,2.1,2.8,3.74,2.57.91-.11,3.19,1.59,3,2.64a1.22,1.22,0,0,1,1.9,1.23c-.17,1,1.37,1,2,1.09s2.32,4.82,1.59,5.19c-1.07.57-.19,1.27-1.18,1.93s-2.86.66-4,.91-5.09-.14-5.51-.64c-3,3.32,4.64,3,5.33,5.33.36,1.25,3.54.74,2.76-.82a3.27,3.27,0,0,1,1.11-4.39c-.08,2.54,3-.2,2.85-1.76-.14-1.09,3.77-1.6,1.44-3.41-.82-.63-1.55-.55-1.3-1.71a3.63,3.63,0,0,1,1.41-2.46c.94-.9,3.25,2.27,4.06,2.7,2-2.72-6-6.05-7.56-7.35,1.75-1.42-.21-1.35-1.32-1.42-1.72-.08-2.42-1-3.79-2.22-1.12-1-1-2.89-1.85-4.1s-2.7-2-3.82-2.87c-1.36-1,.14-2.84-.28-3.61-1.2-2.19-.08-2.36,1.86-2.9s1.58-1,1.91.82,1.33,3.07,2.16.55c1.86,1.44,2.06,2.07,2.78,4.47.26.83,2,3.16,2.8,3.27,3,.4,5.83,3.1,8.27,5,1.85,1.47,2.66,1.47,2.44,3.93-.25,2.67-1,3.89,1,5.51,1.11.91,1.73,3,2.57,4.32,1.5,2.25,1.5,2.55,4,2.56-2.68,2.17-2,2.48-1,5.94,1-.79,1.54-1.13,2.07,0,.57,1.34,1.57,1.12,2.88,1.38-.46-1.43-1.05-1.95.12-2.85s.95-1.82-.58-2.11c1.24-1.54,2-.44,3.22.47.43-2.85-1.73-3.33-3.69-4.71,1.51-1.54,1.45-1.32.39-3.22-.69-1.23-2-2.5-.82-3.83,1.1.78,2,1.74,3.28.67.35-.27-.54-1.47.11-1.71s1.59-.87,2.32-.68c1.45.4,2.38,0,4,.62,1,.41,2.09.42,3,.8-1.15.71-2.12,1-1.95,2.73,1.56-1.45,3.11-2.91,4.67-4.35,1-1,4,1,4.47-.57.18-.54-3-2-3.61-3.2-.93-1.83-1.4-4.14.58-5.43s1.89-3.15,2.4-5.63c.17-.8,1.94-.73,2.38-1.36s.39-2.5.53-3.34c.21-1.4,2.84-3.42,3.74-4.44s4.28.65,5.66,0c-.67,1.42-2.26.74-3.53.66.61.43,1.61,1.54,2.32,1.49a8.6,8.6,0,0,1,3.08,0c3.09,1.05-1.46,2.7-2.63,3.32,2.38,1.14,3.71.78,2.68,3.66,1.72,1.38,4.76-1.37,6.33-2.21s3.07,1,4.42-1.44c-1.92,0-3.77.73-5-.69-1-1.12-2-4,.32-3.75l-.41.87a8.68,8.68,0,0,1,4.92-2.59v.69c1.44-1.91,3.66-2,5.7-2.3.56-.09,2.55-.7,2.13.67-.37,1.14-2.81-.24-2.22,1.65l-2.47.07c.49,1.09,1.73,1.78,2.65,2.54-1.93,0-3.62.77-2.86,3.4l-2.47-.49s-.61.83-.71,1c.86.64,1.69,1.34,2.58,2a23.36,23.36,0,0,0,2.24,1.33c2.19.28,3.54,2.26,5.18,3.81s3.3,1.77,4.73,3.38c1,1.14,1.92,4,.3,5-1.93,1.24-3.53,2.08-5.78,1.81-2-.25-3.26.94-5.24.15-1.18-.49-4.85-1-5.34-1.74-1.35-1.89-.86-.11-2.18-.77-.85-.42-1.64-1.12-1.19-1.91-1.87.65-3.66.33-5.62.17-1.49-.11-3.27,1.18-4.49,2-1.92,1.28-2.06,2-4.47,1.61-1.31-.18-4.21-.77-4.7.59.8.42,1.59.81,2.38,1.21-2.55,1.43-4,1.46-6.91,1.56-1.51,0-5.1.8-4.74,3.57.83-.11,1.67-.19,2.49-.3-2.5,2.8,1.51,9.53,3.83,10.87,1.25.73,3.81,2.87,5.36,2.59s1.6-.21,2.14-1.86c.48-1.37,1.51-.64,2.74-.42,1.86.33,2.74,2.52,4.77,2.45.88-.06,2.46.22,3.26-.16s1.59-2.31,2.5-2.48c.68-.14,1.58,1.25,2.23.7s1.44-1.57,2.08-.86-1.85,4.12-.74,5.74c1.73,2.56-2.72,10.38-3.61,12.9-1.47,4.05-6.42,4.55-9.6,3-2.66-1.29-2.93-.88-5.63.45-2.48,1.2-2.81,1.2-5.39.44l-7-2.08c-.53-.16-1.66,1.2-2,.58-.6-1.19-.66-1.76-1.83-2l-4.41-.9c-.91-.18-.27-1.63-1-1.82-3.15-.85-4.71-.36-7.87.53-.65.18-1.39,2.21-1.75,2.84s.94,2.07.52,2.92c-1.83,3.59-3.32,3.09-6.16,1.1-2-1.43-4.06-1.07-6.23-2-2.48-1.08-1.78-3.85-4.29-4.51l-9.73-2.58c-1.9-.5-3.75-3-5.26-4.33.94-1,3.77-3,3-4.39-1.57-2.93-1.28-3,.11-6.1-1.89-.79-3.58-2.25-5.39-1.14-2.25,1.34-4,.9-6.6.76a13.38,13.38,0,0,0-2.67-.15c-1,.18-1.88,1.3-2.85,1.35a9.6,9.6,0,0,1-2.9-1c-1-.29-2.6.27-3.63.39a43.42,43.42,0,0,0-11.77,3.65A64.43,64.43,0,0,0,521,267c-.41.24-2.15-1.05-2.59-1.3-.81-.42-2.76.44-3.6.61-1.9.41-3.6-2.77-4.21-2.59-2.35.67-2.77,3.92-3.71,6.26-1.34,3.36-8.19,4-8.72,7.43-.44,2.92-.89,5.85-1.33,8.75-.35,2.35-1.21,2.37-3.11,3.58-3.67,2.34-6.24,3.47-8.39,7.35-3.07,5.53-6.1,11.06-9.16,16.56-.53.94-1.87,2.55-2,3.66-.23,1.82,1.11,5,1.5,6.76.61,2.64,1.2,5.25,1.78,7.9.35,1.62-1.3,4.3-1.83,5.76-.31.84-2,3.93-1.53,4.76,1,1.77,2,3.54,3,5.31,3.18,5.52,6.35,11,9.51,16.55,2,3.39,3.51,4.47,6.66,6.73l7.47,5.38c1,.72,2.39,2.4,3.62,2,2.59-.92,5.19-1.85,7.79-2.75,2-.72,3.38-.08,5.51.48s2.86,1,4.72.08l7.11-3.62c1.26-.65,11.28-2.23,12-1.36l4.93,6.05c1.16,1.42,4.4.39,6,.32,2.78-.17,2.69,0,4.47,2.5,1.56,2.14,1.43,2.3,1.1,5q-.56,4.71-1.1,9.42c-.19,1.54-.85,3.15.08,4.38,1.72,2.29,3.41,4.59,5.14,6.89.89,1.19,2.91,3,3.28,4.53,1.17,5,2.34,10.06,3.52,15.11,1.09,4.65,2.64,8.23.1,12.73-2.61,4.66-2.74,9.76-3.54,15.17-.17,1.13-.91,3.16-.37,4.25,1.19,2.46,2.42,4.92,3.64,7.4,1.86,3.77,4,7.11,4.64,11.35.48,3.15,1,6.29,1.45,9.46.17,1.15.15,5,1,5.78,1.2,1.19,3.24,2.46,3.9,4.11,1.1,2.76,2.22,5.52,3.32,8.29.5,1.26,2.11,3.81,2,5.22-.39,3.71-.48,3.67,2.1,6,.77.71,2.89,3.48,4,3.27l6.56-1.38,14.24-3c1.32-.26,3.28-2.79,4.31-3.67a67.88,67.88,0,0,0,5.47-4.73c3.08-3.35,5.55-7.82,8.21-11.6.83-1.19.56-5.21.69-6.68.27-2.77-.23-3.8,2-4.87,1.36-.66,5.38-1.65,6.2-3,.95-1.49.64-5.72.84-7.57.17-1.55-2-4.84-2.61-6.27-.9-2.13.81-2.9,2.23-4.53,1.6-1.88,3.2-3.73,4.79-5.59,1.23-1.44,4.52-2.2,6.15-3,2.93-1.42,5.84-5.64,5.68-9.27-.23-4.91.75-11-2.13-14.87-1.86-2.51-2-2.76-1.86-6,.22-3.57.2-4.1-1.72-7-1.11-1.66,5.75-11,6.83-12.84,4.8-8.27,12.3-14.49,18.72-21.25,2.44-2.55,3.85-6,5.57-9.18,2-3.72,5.09-7.74,6-12,.25-1.1,2.11-6.19,1.61-7.08-.83-1.43-3.66-.23-4.64,0q-8,2.11-15.92,4.27c-1.56.39-3.67-3.61-5.61-4.2,2.88-2.78-.85-5.13-2.7-7.27-1.09-1.3-2.21-2.59-3.31-3.87-.72-.85-3.59-.68-4-1.7-1.1-3-1.84-7-3.51-9.57-.85-1.33-2.53-2.46-3.65-3.53-.9-.86-.79-3.15-1-4.35-.32-2.06-.65-4.09-1-6.16-.19-1.18-2.08-2.51-2.83-3.31-1.76-1.91-1.34-4.62-2.52-7.05q-3-6.07-5.95-12.16c-1-2-4-5.62-2.3-7.8a29.23,29.23,0,0,0,5.29,8c.7-2.14,1.41-4.27,2.11-6.41-.24,1.8-.5,3.59-.73,5.37,1.91-.49,2.52,2,3.34,3.43,1.62,2.93,3.23,5.82,4.85,8.72.76,1.36,2.2,2,2.82,3.2,1,2.07,2.51,4.17,2.9,6.5.28,1.54.26,5.94,1.71,6.48,2.52.94,2.74,1.4,4.19,3.83,2.45,4.1,4.74,7.24,5.64,12l1.71,9.18c.56,3,.82,2.37,3.74,2.37,1.87,0,2.22-2,3.94-2.41,2.31-.62,4.64-1.38,7-1.83,1.12-.21,2-.08,2.61-1.12.52-.8.65-1.22,1.47-1.5,2.71-1,5.42-2,8.14-2.93,1.52-.55,1.29-2.76,2.94-3.5l3.59-1.57c.8-.34,2,.65,2.78.29.94-.45.91-3.2,1.88-3.65,1.63-.77,3.26-1.56,4.91-2.35s2.3-.57,2.3-2.48a10.6,10.6,0,0,1,1.38-5.16c.07.52.45,1,.53,1.51,1-1.21,4.36-4,4.45-5.58s.76-2.72-.81-3c-.9-.15-1.61-2.39-2.06-3.2-.59-1.13-1.81-.73-2.84-1.18a22.39,22.39,0,0,1-3.33-2.29c-1.81-1.23-1.27-4.83-1.44-7-1.87,2.14-4,5.79-6.34,7.23s-6.65,1-9.22,1.16c-.09-3.05.21-5.66-1.26-8.28-.28,1.75-.55,3.5-.85,5.25-2-3.87-3.92-7.82-6.17-11.56-.64-1-3.61-4.66-2.77-5.68,2.48-2.9,2.46-3.05,6-2.53,2.06.31,2.43,2.86,3.35,4.82,1.36,3,1.66,3.27,4.44,4.61,1.55.73,2.63,2.81,4.32,3.09,2.75.44,4.33.81,6.92-.15,3.1-1.14,2.71-.24,4.29,2.87.89,1.74,2.85,1.56,4.57,1.95,3.89.88,7.92,2.45,11.9,2,1.79-.22,12.54-2.6,13.24-1.08s1.49,4.72,2.77,5.46c1.88,1.08,4.19,3.06,6.24,3.56a9.57,9.57,0,0,0,2.54-.22c-.24,2-3.23,1.78-4.65,2.09,1.39,1.5,3.69,5.31,5.67,5.39,1.78.07,1.91.27,3-1.22s2.13-2.94,3.2-4.4q.25,7.59.47,15.19a31.45,31.45,0,0,0,.17,5.32c.49,2.23,2,4.62,2.94,6.69,3.49,7.93,6.9,15.77,10.93,23.39,1.45-.94,2.9-1.91,4.35-2.84s1-2.62,1.24-4.28c1.59,1.69,2.46,2,2.35,4.42a49.6,49.6,0,0,0,.22,7.1c.5,5.49,7.42,1.93,5.67-2.13a21.77,21.77,0,0,0-3.22-6.05c-1.8-2.1-2.14-3.3-2.86-6.14-.46-1.77.93-4.53,1.4-6.26s-.06-4.71-.11-6.62c0-2.28-.73-3.69,1.17-4.61,1.47-.74,3.92-1.33,5.12-2.56q5.34-5.52,10.69-11l3.76-3.87c.46-.48-.28-2.22.14-2.72.24-.3,1.86-.26,2.19-.3l7.68-1.07c1.45-.2,3.19-2.08,4.41-2.93,1.28,2.94,2.09,6.31,4.53,8.26,2.78,2.22,3.58,5.23,5,8.65.41,1-.46,3.67-.59,4.71-.35,2.42-.53,2.22,1.69,2.73s2,.53,3.37-1.19c1.1-1.36,2.2-2.7,3.3-4,1.66,5.25,3.41,9.95,3.77,15.5.19,2.77.82,6,.57,8.73-.16,1.52-1.46,6.92-.53,7.94,2.06,2.2,4.12,4.37,6.18,6.58,1.4,1.48,2,6,2.65,8,.93,2.88,1.08,3.87,3.28,5.61,2.39,1.85,4.15,3.69,7,4.18a47,47,0,0,1-2.34-5.83c-.46-2.07.34-4.84-.42-6.77-.51-1.35-2.6-3.35-3.7-4.22-1.27-1-4.5-2.49-5-4.14-.29-1-1.35-6.47-2.2-6.43-1.65.1-1.65.39-1.81-1.41a6.59,6.59,0,0,1,0-2.83c.77-2.07,1.87-4.15,2-6.37.29-3.72-.34-4.18,3.08-4.33-.11.84-.22,1.71-.33,2.56,3.52.15,5.52,1.71,8.11,4.49,1.43,1.55,2.88,3.1,4.31,4.67,1.08,1.14-1,3.42.49,5a157.13,157.13,0,0,0,12.84-10.88c1.48-1.38.37-6.07.29-8.06-.14-3.25-1.24-4.11-3.22-6.66-1.57-2-3.27-4-4.64-6.19-1-1.54-1.92-3.06-2.87-4.6-.34-.56.93-3.32,1.12-4,.66-2.11,4.53-4,6.14-5.31,1.88-1.52,4.93-.52,6.63.79-.55.12-1,.56-1.59.69.22.57.72,2.8,1.18,3,1.68.89,1.66-1.08,1.47-2-.28-1.47-.57-1.48.67-1.93l4.52-1.64c4.89-1.78,9.69-3.79,14.51-5.8,4.48-1.87,6.86-6.27,10-10.21,2.92-3.69,4.86-9,7.14-13.24-1.83-.55-3.68-1.09-5.51-1.62,1.49-1.08,3-2.12,4.44-3.16l-6-4.43q2.87.51,5.69,1.05c-1.14-2.55-2.31-5.09-3.49-7.64-.92-2-2.85-3.12-4.43-4.48q5.52-4.68,11-9.33c-3.35-.87-5.83-2.22-9-.65-2.21,1.11-2,1.4-3.43-.8a31.75,31.75,0,0,0-3.44-4.14c-.92-1,2.36-2.18,2.69-2.29a12.08,12.08,0,0,0,4.33-2.74,17.51,17.51,0,0,1,3.66-2.64c2.09-1,2.14-.58,4,.9-1.76,1.85-4.6,4.08-3.4,7.11l4.56-2.74c1.07-.64,3.32-2.71,4.56-2.75a14.66,14.66,0,0,1,3.76,2.35c-.37,1.2-1.91,4.15-1.65,5.35.5,2.34,2.89,1.33,4.39,1.17s2.2,1.67,1.08,3c-1.77,2.09.33,1.94,0,4.26-.27,2-.54,4-.83,6,2.71.08,4.07.15,6.46-1.1,2.9-1.53,2.48-2.33,3-5.89.74-5.29-2.44-8.68-6-11.79,3.24-3.15,6.77-5.54,8.28-10,1-2.89,1-3.55,3.39-5,.48-.29,2.26-1.77,2.81-1.67.71.15,1.4,2.37,2.16,2.19,1.51-.36,3.94-.35,5.12-1.52,2.14-2.12,4.28-4.25,6.41-6.35,3.16-3.1,5.18-6.81,7.6-10.64,2.59-4.12,4.29-6.72,5.37-11.49,1.15-5.05,2.29-10.07,3.19-15.17.38-2.14-7.33-8.46-8.7-5.77-1.59,3.16-1.85,2.65-5.1,2.38-.52-.05-1.08-2.4-1.25-2.9-.62-1.61-.77-1.34-2.37-1.5-1.24-.11-2.21,0-2.8-1.45,4.32-3.11,8.51-5.92,12.25-9.79,4-4.19,8.18-8.11,12.4-12,1.23-1.15,5.76-.43,7.33-.5a34.76,34.76,0,0,1,7.28.36c1,.16,2,.65,2.9.13.68-.4,2.56-2.08,3.31-1.92,2.72.54,5.44,1.07,8.16,1.62-1,.73-2,1.46-3,2.21l8.58-1c.56-.07,3.33-.27,3.57-.72.62-1.11-1.41-2.08-2.22-2.8a66.06,66.06,0,0,1,8.26-8.45c1.94-1.58,2.55-1.44,5-1.39s3.29-.42,5.45-1.7c-.61,3.15-.9,4.29.2,7.22,2.29-1.89,5.7-3.75,7.32-6.35.8-1.28,1.59-3.57,3-3.75a12.59,12.59,0,0,1,5,.43c-.5.11-3.2.35-3.31.81-.47,2-1,3.91-1.41,5.88-.64,2.61-3.29,3.41-5.26,4.88-2.86,2.14-5,3.51-6.84,6.68-2,3.37-3.91,3.88-7.29,5.52-11.77,5.75-4.65,24.48-2.55,34.29,1.68-2.09,5.2-5,5.64-7.75s.57-2.55,3.13-3.22c2-.54,1.44-2.36,1.61-4.54.15-1.84,1.52-1.67,3.07-2.2.7-.24,3.45-1.32,3.16-2-1.71-4.19,1.14-5.59,4.34-7-1.9-2.57-1.74-2.69-.92-5.88.35-1.34-3.49-1.81-4.58-2.16,2-3.28,4.07-6.58,6.12-9.86.91-1.47,2.31-.64,3.83-.42,1.19.16,3.23-1.43,4.32-2,0,1.12.08,2.25.11,3.39,2.17-3.18,2.37-3.39,5.93-3.86,3.75-.49,3.92-.14,6.76,2.68,1.53-3.71,5-4.77,8.18-6.71l12.3-7.48c1-.59,3.48.48,4.55.7.6.12,2.21.79,2.78.55.31-.12,1.56-1.78,1.4-2-1.55-2.23-2.62-3.33-2.78-6.1-.14-2.37-2.16-2.92-3.89-4.15,2-.55,9.46-1.22,9.57-3.57.07-1.49-.5-5.27,1-5.53,2.92-.48.64,3.52,2,3.63l6.69.47c2,.16,1.76,2.11,2.27,4.18.35,1.42,2.93-.09,4.08.77a8.17,8.17,0,0,0,5.06,2c-.32-1.31-1.42-3.22-.14-3.83,1.74-.8,1.34-1.46,1.41-3.52ZM697.91,241c.92.86,2.23,1.43,1.88,2.9-.95.44-6.14-.13-6-.34-.5,1.06-1.06,2.17-.17,3.3.34.4,1.49-.07,1.84.3a6.34,6.34,0,0,1,.64,2,10.53,10.53,0,0,1-1.26-.1c1.32,2.39,2.83.85,2.18,4.2-.43,2.18,0,4.31.28,6.54-1.84.23-4.87,1.35-6.63.8-1.35-.41-2.73-.84-4.1-1.28-1.12-.34-1.18-1.39-2.58-1.73-1.61-.39-2.09-.05-2.25-1.83s-.34-2.58.25-4.09a27.78,27.78,0,0,0,1.29-3.69c.49-2.06.87-1.85,2.73-2.42-2.25-1.09-2.69-1.84-4-4.16-.81-1.43-2.53-1.92-3.22-3.45a11.91,11.91,0,0,1-1.43-6.28,3.38,3.38,0,0,0-3.29-3.2c.63-.69,2.11-1.72,2.3-2.67.42-2.07.29-2.16,2.06-2.89.74-.34,3.6-1,3.82-1.88.73-3.16.57-1.82,3.09-2.27,1-.18,2.63-1.78,3.59-1.4,1.28.5,2.77,1.75,3.76.54s2.07,1.62,2.36,2.16c.69,1.27-.2,2.79-.6,4.13,2.57.81,3.26-1.21,4.24,1.86-2,.25-2.4,1.26-3.54,2.88a3.62,3.62,0,0,1,2.19-3.34c-1.55-.73-4.41-.63-6.25-.93a2.91,2.91,0,0,0-2.49,1c-.88,1.3.14,1.49,1.19,2.48-1.58,1.17-2-.7-3.54-.32s2,1.8,2,1.88c.17,1,.14,3.74.74,4.51.77.94,3.16,1.44,4.24,1.93-1.23,2.72-.92,3.77.56,6.29,0-1.49.45-5.55,3-4,.59.37.57,2,1.14,2.47ZM167,54.3c.87-1,2.15-.73,3.31-.78a6.24,6.24,0,0,1,1,.87c-1.29,1-2.93.17-4.31-.09ZM281.86,329.55h0a11,11,0,0,0,3.58,1.9c.71.2,1.61-1,2.94-.56a8.28,8.28,0,0,0-.76-1.16c-1.61-.55-4.45-2.13-5.76-.18Zm70.65-129.77h0c.42-.92.86-1.82,1.26-2.73-2.6-1.06-5.42,2.49-6.38,4.8a23.6,23.6,0,0,1-5.86,8.62,6.32,6.32,0,0,0-.38,4c.65,1,2.91.73,3.82.62,3-.34,6-.3,8.8,1.19a2,2,0,0,0-1.54,2.15c2.62-.54,3.16-2.35,5.9-2.54-.38,2-.66,2.05,1.12,2.74,1.47.57,1.71.6,2.59-.72,1-1.48-.13-4.92-.49-6.52-.25-1-2.08-1.49-2-2.09.25-1.76,0-1.81-1.13-3.13-.88-1-4.57.33-5.66.63-.07-.69.11-2.14-.5-2.41s-1.58-.42-1.59-1.06c0-2.05.59-2.23,2-3.55ZM317,330.24h0c.74,1.83,3.9.36,4.63-.78a6.64,6.64,0,0,0-.5-.54c-1.43-.11-5.18-1.3-4.13,1.32Zm-26.06-6.46h0c1.29-.33,2.56-.73,3.84-1.12a6.55,6.55,0,0,0-3-1.81c-.91-.16-1.39-1.54-1.81-1.51a6.42,6.42,0,0,1-5.17-2.5,4.12,4.12,0,0,0-.23.47c-3.74-2.49-7.83-4.77-12.14-5.19-2.57-.25-4.55.31-7.08.93-2,.51-2.57,2.48-4.22,3.5,3.24,1.71,6.95-5.59,10.16-2.35a2.09,2.09,0,0,1-1.65.33,2.23,2.23,0,0,0,2.34.85c1-.31,1.1.48,2.18.51,1.77.06,3.43,1.32,5.32,1.59s1.82,2.31,3.76,3.22c.51.23,2.42-.26,2.4,1.06,0,.44-1.63,1.66-1.93,2,2.39.43,4.81-.17,7.26,0Zm35.6-106.34h0c-1.52,2.83,1.12,3.3,3,4.18s2.42-.22,3.75-1.68c-2-.15-4-.31-5.92-.48l-.86-2ZM325.32,205h0c1.95,1.56,6.42,5.31,8.89,3.33-2.32-2.62-5.78-3.43-8.89-3.33Zm92,212.11h0c.95,4.15,1,4.08-1.23,7.37q-4.17,6.06-8.38,12.1c-1.3,1.92-2.89,3.38-3.06,5.76-.43,5.94-.86,11.9-1.28,17.83-.28,3.94-4.36,8-6.39,11.11-.89,1.34-1.63,3.61-3.23,3.7s-5.1-.44-6.4.45q-5.88,4-11.75,8.08c-.77.55-.76,6.41-.88,7.45-.13,1.23.07,3.37-.72,4.37q-4.86,6.27-9.75,12.54-4.46,5.76-8.93,11.5c-.69.86-10.06-3.18-11.51-3.63-.84,3.21,4.52,3.55,5.07,6.33.28,1.37,1.33,4,1.08,5.32s-2,3-2.69,4c-2,2.89-4.61,2.83-7.78,3.69a13.83,13.83,0,0,1-7.63.13c.61,2,1.09,2.79.37,4.66-.43,1.17.1,3.05-.57,3.53-3.1,2.17-4.91,1.24-8.15-.39,0,1.63-.46,3.81-.11,5.36.26,1.15,2.15,3.09,1.65,4.2-1,2.13-2,4.25-2.95,6.39s-1.31,1.89-3.48,2.42c-1.88.45-2.22,2.08-3.2,3.86-.6,1.13,1.71,3.27,2.38,4.23.87,1.23,3.73.16,3.13,2.15a9.17,9.17,0,0,1-2.17,4.18c-1.1,1.33-2.69,2.67-3.22,4.37-.8,2.57-1.46,2.69-3.68,4s.25,8,.67,10.46c.17.89.13,3,.85,3.61,1.65,1.44,3.31,2.85,5,4.26,2.88,2.47,4.85,2,8.56,2.12-3.36,1.5-6.73,3.05-10.09,4.57-2.69,1.23-3.21.53-6-.81-4-1.91-7.93-3.84-11.91-5.74-2-1-2.38-3.28-3.31-5.49-2.23-5.25-5.86-10.4-5.2-16.25q1.48-13.08,3-26.13c.95-8.38,1.33-17.12,2.9-25.41q3-15.66,5.93-31.32,1.8-9.54,3.61-19c.51-2.72,1.48-5.73,1.61-8.49.08-2.32-.61-5-.91-7.29-.18-1.52,0-5.17-.79-6.47s-3.68-2.56-4.93-3.43q-3.69-2.55-7.34-5.11c-2.48-1.73-3.17-3.45-4.69-6.29-3-5.64-6-11.27-9-16.91-2.47-4.66-5-9.29-7.44-13.95-1.53-2.85,1.06-8.14,1.77-11.12.35-1.48.52-4.78,1.45-5.94l4.25-5.47c3.16-4,5.88-6.4,5.05-12.1-.19-1.3-1-2,0-2.95.13-.13-.34-2-.18-2.63.4-1.74-3.45-3.33-3-5,.52-2.08.4-1.84-1.3-2.81-1.23-.72-1.22-.63-2.49.05a13.43,13.43,0,0,0-2.5,2.05c-.44.41.81,1.87,1.09,2.37-2.44,1-2.33,1.34-3.45-1.33-.5,1.45-2.94-1-4.3-1.27-.71-.14-1.19.67-1.62.35-.74-.56-1.48-1.14-2.23-1.7-1.53-1.15-4.55-2.58-5.6-4.26-.89-1.4-.45-3.56-1.58-4.88-2.9-3.34-4.66-6.3-8.69-7.43-3.13-.87-8.34-1.1-10.8-3.52-2.16-2.14-4.35-4.27-6.51-6.42-1.41-1.39-3.42.07-5.12.61-3.85,1.19-7.79-1.62-11.45-3.1l-8.9-3.59c-.9-.37-2.68-.66-3.43-1.41l-5.78-5.88c-1.78-1.8-.72-2.89,0-5.42.48-1.64-2.59-4.87-3.44-6.18a17.89,17.89,0,0,0-3.06-3.69c-2.07-1.94-4.15-3.85-6.23-5.79-.47-.45.12-1.78.23-2.39s-1-1.64-1.36-2.08a26.22,26.22,0,0,0-4.56-5c-1.56-1.21-3.22-1.95-3.82-4-.33-1.13-1.2-6.55-2.15-7l-5.77-2.64c.64,2.17,1.08,6.42,2.46,8.08,2.09,2.5,3.89,4.46,5.13,7.54a7,7,0,0,0,2.57,3.47c1,.91,1.32,2.35,1.82,3.71a13,13,0,0,1,1.24,4.24c.12,2.36,1.13.68,1.85,1.21s2.34,2,2.18,3.23c-.22,1.61-1.63,2-2.31.76-1.39-2.56-3.85-4.08-6.08-5.7-.63-.47-.4-3.39-.46-4.21-.1-1.28-1.94-2.13-2.81-2.86s-1.68-.37-2.61-1.2-2.14-1.88-3.2-2.84c1.27-.15,4.27-.41,2.6-2.87-1.46-2.17-2.11-3.25-4.34-4.33-1.45-.72-1.82-3.15-2.42-4.7-1-2.63-2.06-5.25-3.07-7.89-1.11-2.87-4.85-5.37-7.58-6.13-2.25-.61-3-.42-4-2.61l-3.29-7.16c-1.61-3.53-4.81-5.69-5.93-9.54-1.47-5-1.36-8.24-1.11-13.54.2-4.42.43-8.81.66-13.21s-.78-6.94-2.12-11a57.47,57.47,0,0,1,7.2,2.21c.09-3.59.25-4-2.07-6.52a32.63,32.63,0,0,0-5.42-4.62c-1.81-1.27-3.74-1.27-5.7-2.13-3.2-1.4-3.67-1.51-5.12-4.9-1.64-3.91-7.46-5.95-7.07-10.31.34-4,0-3.67-3.14-5.69-.45-.29-2.37,4-3.72,1.88-1-1.56-2.62-5.52-4.19-6.26-2.23-1.07-2.7-1.6-4.12-3.76s-2.68-4.94-4.41-6.67c-1.43-1.46-3.56-2.46-5.2-3.59a48.52,48.52,0,0,0-12-5.85c-1.76-.66-3.91.84-5.7.43s-4.07-2.49-5.72-3.51c-2.3-1.41-2.94-1.92-5.5-1.68-2.29.23-3.43.84-2.56,3.73.72,2.44-8.61,5-10.67,5.66a1.43,1.43,0,0,1,1.08-2.1c-1.58-.48-.39-5,.61-5.59a10,10,0,0,1,6.1-1.29l-1.8-1.64c.69-.49,1.37-1,2.06-1.51-4.14.79-5.86,1.68-9.34,4.32-3,2.27-4.21,4.82-6.16,8.27l2.87.7c-2.87,3.82-5.73,6-9.5,8.76-1.87,1.37-7.81,2.88-8,5.68-.22,2.52-7.94,3.95-10.14,4.58a15.63,15.63,0,0,1-2.74.42c-1.15.13-.57.74-1.43,1.31-1.87,1.24-3.16,1.6-5.18,1.11,1.84-1.79,3.76-2.25,5.84-3.55,1.59-1,6.23-5.44,7.65-3,1-1.78,4.7-5.88,6.72-4.46-.69-1.92,2.79-3.14,3.17-5.27.33-1.77.36-2.2,1.52-3.37.77-.76,1.51-1.16.74-2.33-2.51,1.38-5.23,3.62-7.8,1.73-.89-.65-2.59-2.58-3.65-2.12-1.31.58-2.63,1.14-3.93,1.73-.47-2.67-.93-5.33-1.38-8-.65.37-4.06,2.86-4.55,2.49-1.27-1-3.74-2.3-4.6-3.77s-1-4.69-1.44-6.52c-.34-1.54.89-2.73,1.65-4,1.49-2.55,1.31-3.21,4-2.95,2.27.22,2.6-1.61,4.59-2.42s3.59.75,4.56-1.71c.76-1.94-.38-2.3-1.71-3.78l1.8-1c-.85-2.57-2.89-.28-4.35.55-1.87,1.08-2.16-.2-4,0-3.7.49-7.88,1.25-9.92-2.8.46-.14.89-.62,1.37-.71-1.83-.62-4.24-.9-5.5-2.68,2.67-1.41,4.56-2.67,7.51-2.67l-.63-.82A11.81,11.81,0,0,1,13,120.1c-.11,3,2.14,2.51,4.42,3.11,2,.51,2.62-.38,4.35-1.6l-2.41-1,.94-.36c-.88-.71-1.17-1.53-.21-2.21a24.56,24.56,0,0,1-5.94-1.19c-1.65-.56-1.64-3.18-3.25-3.93-1.09-.52-5.79-1.81-6.25-2.92-.22-.5.82-2.74,1-3.31.12-.41,1.17-.27,1.52-.29,1.74-.12,4.43.43,5.56-1.19a32.07,32.07,0,0,1,4.1-5.31,20.63,20.63,0,0,1,10.22-4.72c2.36-.41,4.29-.41,6.19-1.92,2.64-2.12,2.48-2.16,5.39-.62,2.56,1.36,9.87-.51,11,2.64.82,2.32,8.43,2.11,11,2.44,3.8.49,7.61.93,11.39,1.62,5.59,1,11.18,2,16.78,3,3.68.66,7.15,2.79,10.59,4.34.61.26,4.51-4.49,5.15-5.1,1-1.08,3,2.07,4.24,1.53,2-.87,10.89-6.3,12.21-4.19L111.22,104c2.51,1.74,10.78-5.49,11.49-2.41l2.91-3.41c.78-.92-1.17-1.18.26-2.34,2.48,2.89,5,5.55,7.68,8.16.87-2.77,1.21-3.71,3.24-5.52,1.24,1.3-.92,1.87.76,2.85.62.36-.39,1.69-.68,2.29,1.07-.28,3.09-.31,4-1,.32-.27-.4-1.58.21-1.66s1.21-.18,1.82-.27c2.17-.3,5,1.76,7,2.63,4.13,1.78,8.84,2.43,13.16,3.57-.1-.31-.21-.61-.29-.94,2.76.11,4.19,1.41,6.58,3,1.78,1.23-3.65,3.1-4,3.28,1.83.57,3.77,1.55,5.66,1.41l9.42-.75c1.46-.11,4-.55,5,1,1.44,2.14,2.88,4.27,4.31,6.42-.22-.93-.44-1.87-.65-2.8-.14-.57.44-1.09.36-1.62-.34-2.24-1.3-1.68-.1-3.84.85-1.46,7.25-1.64,5.81-3.86-3.1,1.26-5.38,2.26-8.67,2.18.75-2.83,1.89-2.53,4.44-3.39s3-1.13,5.45.25c.7.39,1.13,2,1.5,2.72.49,1,1.21.84,2.2,1.07a39.6,39.6,0,0,1,5.79,1.81c1.62.61,10.55,1.63,10.92.38.77-2.56.89-3.78,3.7-3.76,1.74,0,3.78.95,5.51,1.39-.25.85-1.35,3.41-1.08,4.19s2.76,1.86,3.46,2.33c-.91-2.91-2-5.44,1.57-6,1.47-.24,2.32-1.56,3.4-2.63.77-.74.23-1.74.05-2.8l-2.75,1.32c-.34-2.86,1.73-3.31,3.73-3.48-.09-2.25-2.2-.66-3.57-1.17-1.08-.43-4.81-1.14-5.28-2.3-1-2.43-.94-4-.91-6.68s1.24-2.94,3.2-2.14c.34-1.24-.5-1.69-1.55-1.56,1.93-1.24,2.2-1.08,2.13-3.5a9,9,0,0,0-1.08-4.86c-.72-1.39-.2-3.42-.1-5,.08-1.24,2.11-.57,3.06-.55-3.49-3.86,2.66-2.77,5.05-2.75a26.56,26.56,0,0,1,8.84,1.27c-1.33,1.94-3.16,6.16-5.07,7.32-1.7,1-5.87.17-7.68.14,5.76.86-.87,4.6-.5,6.46,2.93-.53,4.59,2,5.13,4.82.34,1.79,3.22,3.94,4.39,5.36l-4.29,2.88c1.42.55,2.56,1.5,3.87.58s2.48.21,3.88.9c-.68.46-1.37.93-2,1.4,1.36,1.17,2.09,1.2,1.64,3.06s-.75,2.24.88,3.3c1-1.43,1.54-2.13,1.71-3.88.05-.66.63-3.37,1.82-2.64.76.48,3.39,1.48,3.58,2.42.35,1.58,1.35,3.4-.61,4,0-.38-.21-.79-.2-1.17-4,2.22,4.91,10.22,5.3,5.88.11-1.22,0-1.94.82-2.71.41-.39,1.76-1.19,1.76-1.85,0-3.23.05-3.06,2.76-4.27-1.09-1.7-2.1-2.53-1.7-4.54s1.53-1.52,3.32-1.22c1.17.2,4.39.08,5.21,1a6.06,6.06,0,0,0,4.24,2.56c-.93,1.69.55,2.77-.44,4-.63.74-2.74.46-3.65.54.81,1.76,1.36,3.34,2.71,4.58s2.11,2.43.53,4.43c-1,1.32-3.56,2.19-4.94,3s-2.31-1-3.41-2c.55,1.26,1.1,2.51,1.66,3.77-.87-.45-1.72-.91-2.58-1.35.09.35.21.69.32,1.05-.89-.2-1.74-.42-2.62-.62-.59-.14-.12-1.66-.71-1.63-1.34,0-3.18-.51-3.86,1,.81.5,1.63,1,2.45,1.44-.88,1.34-1.61,2.95-3,3.71-2,1.1-2.66.18-4.66-.89-3.13-1.63-5.88-1.49-9.37-1.64l7.22,3.64c1.76.89,4.68.58,6.6.84-.76,1.3-2.05,4.88-3.33,5.48-.74.36-1.76,1.12-2.57,1.08-1-.11-2-.47-2.86.15-2.66,1.88-2.86,2-5.89,1.07-1.9-.57-3.83-1-5.74-1.56l3.81,1.75c-.27.24-.45.59-.75.83,2-.48,2.35-.45,4.18.55.95.55,2.44,2,.84,2.71a7.44,7.44,0,0,1-4.39.71c-.61-.05-1.58,2.13-1.91,2.62-1.53,2.4-3.95,5-4.56,7.9-.69,3.3-1.37,6.62-2.08,9.92,1.32.31,4.23.33,5.22,1.24s1.75,4.87,2.29,6.33c1,2.68,1.56,1.71,4.13,1.13,1.35-.3,2.88.64,4.15,1.1a37.18,37.18,0,0,1,10,5.11c1.07.77,3.14,3,4.44,3.12,1.92.22,3.85.43,5.75.62.68.07,4.35,0,4.32.81-.11,2.67-.23,5.33-.34,8-.15,3.7,3.56,6.51,5.7,9.2s6.57-2.24,6.21-4.49-.79-4.73-1.18-7.12c-.21-1.26-1.86-2.93-2.56-4,2.33-1.52,6.84-3.2,8.47-5.53,1.47-2.09,1.84-7.79,0-9.59a27.92,27.92,0,0,1-3.6-3.84c-1.48-2.07-1.95-1.89-.11-3.6,2-1.83,2.2-1.57,1.44-4.29-.4-1.46-1.33-3.23-.86-4.72.85-2.71.92-3.2.1-5.88-.52-1.69.54-2.26,2.27-2.48,3.16-.39,6.08,2.36,9.17.9,2-.91,2.49.12,4.3,1.41.86.63,3.33,1.7,3.61,2.86.44,1.73,1.43,3.08,3.36,2.79,1.55-.22,2.6.52,4,1.22-.83,1.41-1.32,1.81-1.05,3.4s.72,2.91.12,4.37c.42-.09.87.12,1.28,0-.76,1-2.94,2.51-1.77,3.58,2-6,9.29,7.13,10.79-1,.33.36.94.4,1.28.77.81-1.73,2.12-3.4,1.77-5.35-.25-1.36,1.73-4,3.09-3.74-.17.72-.33,1.45-.48,2.17,3.14.16,5.24,6.6,6.74,9.19.83,1.44,3.37,4.33,3.48,6,.05.89-1.53,2.16-1.35,3,.09.41,1.65,1.33,1.94,1.58a11.52,11.52,0,0,1,2.58,2.06c.57,1-.36,2,.92,2.07,2.41.14,3.43.18,5.44,1.54,1.38,1,4.1,2.25,1.11,2.71a32.08,32.08,0,0,0-5,1.45c1,.37,2.33-.36,3.41-.69-.73,1.34-3.1,1.45-4.44,1.87s-.87,3-.18,2.07a3.36,3.36,0,0,1,1.94-1.24c.79-.29.49-.73.95-1a9.3,9.3,0,0,1,3.87-1.09,2,2,0,0,1-1.42-.77c1,0,2.83.08,3.23,1.21.54,1.47-1.11,1.36-.2,2.5,1.08-2,2.38-.95,4.08-.4,1.36.45.3,3,0,3.82-.55,1.51,1.17,2,0,3.76a10.46,10.46,0,0,1-3.73,2.3c-1.31.34-2.6.06-4.09.53s-2.1,1.4-3.2,2.62c-2.27,2.5-4.15,2.86-7.5,2.52a59.55,59.55,0,0,0-9.9-.22c-3,.18-6.06-.84-6.86,3.16-.22,1-3.1,1.34-3.89,1.91-1.3.9-2.43,2.59-3.52,3.77-2,2.13-3.07,4.68-5.41,6.41,4-2,6.16-6.18,10.17-8.13,2.75-1.33,10.22-5.54,12.18-.61-.33-.18-.69-.23-1-.4,2,1.38-.73,2.39-1.74,3.28-1.3,1.13-2.36-.85-3.86.19.61.16,2.07,1.77,2.15,1.75a4.53,4.53,0,0,1,2.75-.16,4.8,4.8,0,0,1-1.81,2.81c.46-.17,1,0,1.52-.06-.75,2.11,1.47,3.8,3.08,4.19-.18.14-.35.29-.54.41,2.32,1.12,4.6,2.08,6.62.61l.21,1.1a3.16,3.16,0,0,0,1.38-.41c-1.38-1.79,1.4-4.36,2.35-5.82,1.83.66.78,2.26.37,3.69,1.32-1,3.22,1,2.09,1.51-1.52.66-2.9,1.55-4.58,1.26.37.3.55.86.91,1.17l-5.7,2.31a6.73,6.73,0,0,0-2.1,1c-.81.72-1-.94-1.72-.38-1.29,1-2.45,3-3.84,4.37-.93.89-1.85-.38-2.43-.59-2-2.85,2.82-5.33,4.45-6.5,1.15-.84.59.15,1.12.63,1.08.92,1.73-.36,2.73-1.25-1.27-.05-2.89-.51-4,.26a4.54,4.54,0,0,1,1-2c-1.49-.37-3.36,1.56-4.59,2.36-.8.53-.78-.64-1.71.44-.47.55-1.55.23-2.21.23,1,3.08-4.25,2-4.95,3.35l-.63-.64c-.8,1.65-1.56,1.83-3.11,2.41-1,.4-1.07,1.15-1.5,2.28-.63,1.62-3.59,7.07.47,6.64-.12-.25-.22-.53-.33-.77a4.57,4.57,0,0,1,.85,1c-1.2.85-2.63.12-3.91-.19-.63-.15-.42,1.73-1.35,1.79-3,.23-4.32.39-6.89,2.11,1.83-.23,3.32-1.14,5.11-1.4-.2.14-.38.31-.58.45.51,0,1,.12,1.51.06a7.83,7.83,0,0,1-3.5,1.37c-1.14.09-3.13-.33-3.8.88,2.78.31-1.22,5.6-2.25,6.47.65-1.16-1.33-1.92-1.78-3.26.09,1.63,2.14,3.83,1.4,5.31s-2.1,3.33-2.5,4.86l-.3-.09a8.45,8.45,0,0,1,1-3.08c-.73-.46-.37-1.93-1.83-1.53a13.78,13.78,0,0,1,.72-3.23c.09-.18,1-2.28,0-1.57-2.37,1.72-1.66,2.84-1,5.75a6.22,6.22,0,0,0-2.28-1.18c.6.87,2.05,1.15,2.52,2,.35.68-.5,2.6-.31,3.23.33,1.17,2,.57,1.52,2.5-.34,1.56-1.31,1.41-2.67,1.85,1.18,0,3.22-.39,2.93,1.37-.11.73-2.57.76-3.21.87.35.21.64.56,1,.76-.54.18-.81.54-1.48.53.57,1.42,1.42.14,2.39.7l-2,1.1c-.53.26-1.25-.57-1.66-.34-.81.47-1.62,2.36-2.18,3.18-.41.6-1.85.34-2.6,1.29a9.28,9.28,0,0,1-2.21,2.51c-3.18,1.88-3.73,2.73-5.45,6.23-.8,1.65-.29,4.58.48,6.23a58.7,58.7,0,0,1,3.18,8.58c.47,1.6.89,5.73-.28,6.88-.87.88-1.61,2.05-2.64.61-.32-.46-2.19-2.14-2.23-2.29a20.73,20.73,0,0,0-1.4-3.43c-.56-1.24-1.19-2-.81-3.45l-.67.59c-.55-1.9,1.19-4.62-.7-5.92-1.67-1.15-2.57-3.42-4.54-2.79-1.06.34-2.18,1.12-3.16.47a14.17,14.17,0,0,0-3-2c-1.73-.47-4.64,1.83-5.14-1.1-.33,2.56-6,.71-7.66,2,1.16.12,5.51.65,2.26,2.21.34.18,2.11.79,2.17,1.11.21.9-.57,1.28-1.2,1.16.47-1.18-1.28-1.63-2.12-2.15.18.83-.19,1.11-.21,1.75-.79-1.65-1.49.07-2.56-.74-1.35-1-1.94-2-3.51-1.43-.89.3-2.14-.53-3-.86-1.61-.6-4.14,1.23-5.68,1.88-2.52,1-8.55,5.5-8.58,9.13,0,1.11,1.47,2.25,1.54,3.36a10.4,10.4,0,0,1-.76,2.72c-.56,2-1.43,4-1.42,6.1,0,5.23.71,9,3.6,13.35,1.7,2.56,2.34,4.35,5.12,5.16.57.19,1.48,1.62,2,1.44,1.15-.45,2.29-.88,3.44-1.29a9.94,9.94,0,0,1,3.08-.71c.82-.06,1.47,1,1.89.82a6.45,6.45,0,0,0,1.45-.69c.27-.23-.4-.93,0-1.29a4.55,4.55,0,0,0,1.87-2.54c.65-2.21.45-4.8,2.8-5.72a17.4,17.4,0,0,1,5.16-1c1.32.15,5.1-.63,3.91,2.23-.48,1.11-2,4.46-2.83,4.53.42.24.18.66,1.13.63-.36.3-.63.72-1,1l.18.25a6,6,0,0,1,.52-.36,21.79,21.79,0,0,0-1.1,4.1,2.64,2.64,0,0,1-.67-2.38,7.47,7.47,0,0,0-.93,1.57c1.77.08-.26,3.47.33,4.73s-1.37,3.24-2.14,4c2.51.87,4.93.2,7.69.62,1.07.15,1.85-.8,2.91-.62a15.22,15.22,0,0,1,3.88.56c2.34,1,3.84,2.66,3.42,5.37-.29,1.75-.56,3.47-.82,5.21-.17,1-1,1.9-1.12,2.86-.59,4.73,5.13,12.42,9.42,10.67,2.65-1.08,4-2.17,6.79-1.33s3.74,2.28,5.73,4.48c-.14-3.35,4-7.89,5.61-10.59.49-.83,3.59-1.34,4.41-1.65,2.25-.79,4.5-1.62,6.77-2.43,2.06-.75,5.8,1.06,7.83,1.53,5.35,1.25,10.67,2.47,16,3.73,2.9.67,5.82.71,8.06,2.85q6.24,6,12.49,12c2.64,2.52,8.39,2.58,11.73,3.4,3.14.78,5.6,6,7.58,8.58s4,5.25,6,7.87c.47.65,1.55,2.74,2.3,3,4.29,1.56,8.58,3.1,12.88,4.65l12.88,4.66c3.55,1.3,7.24,5.21,10.4,7.47.58.07,4.57.12,4.67.56.43,1.93.89,3.84,1.33,5.75ZM158.63,121h0c-.42,0-.85-.41-1.27-.41.36-.27.61-.74,1-1-1.47-.19-2.45,1.62-3.92,1.85-2,.29-2.77.41-4.61-.4.51-1.55,2.86-2,4.14-2.61-2.68-1-3.33-1.24-6-.21-1.63.64-3.28,1.21-4.92,1.76-1.79.6-3.64.85-5.41,1.45-.92.29-4.86.48-2,2.35.2-.15.7-.52.79-.57-.11-.23-.19-.37-.29-.56a11.5,11.5,0,0,1,5.38-.09,2.46,2.46,0,0,0-.31-.63,7.71,7.71,0,0,1,5.69,1.07c-.91,1.48-3.36.18-4.8.6a4.83,4.83,0,0,1,1.62,1.59,6.67,6.67,0,0,0-2.07,1.09c1.22,1.46-.86,1.63-1.82,1.81,1.31,1,2.8.29,4.15.9.94.44,2.2-2,3.06-2.54,1.4-.93,3.91-.2,1.92,1.1-.8.51-.93,1.22-1.31,1.53s-1.17.3-1.52.6c1.95,1.79,3.91-3.27,6.39-2.52a2.38,2.38,0,0,0-1.8-1.57c2-2.1,6,1,6.88-1.28a5,5,0,0,1-1.16.12c.08-1.39,1-.65,1.35-1.45s.56-1.33.82-2Zm27,20.26h0c-2.1-.9-5.44-1.56-7.45.07a23.57,23.57,0,0,0-1.88,2.35,4.05,4.05,0,0,1-3.06,1.59c-1.35.16-3.57.06-4.23-1.67-.18-.47-2.52.08-3.16-1.12-.17-.33-2.36-1.25-2.63-1-.48.43,2.18,1.63,2.61,1.56-.77,1.81,3.28,3.21.8,3.81-.77.21-1.46-.44-2,.41s-.24,1.26-1.3,1.49a6.4,6.4,0,0,1,.49.42c-.81.68-1.77,0-2.78,0,0,.18.08.37.11.54-1,0-1.86-.55-2.86-.47,1.32,1.8,4.68,2.2,6.75,2.53,1.3.2,6.36-.54,5.52-2.21,1.58-1.39,2.53-.94,4.26-1.73,1-.45,2-1.81,2.86-2.57a5.87,5.87,0,0,1-.74,0,6.72,6.72,0,0,1,3-1.94c1.1-.28,1.81.2,2.76-.85-.84.37-.95.24-1.73,0,.75-.19,1.52-.39,2.3-.57a2.75,2.75,0,0,1-2.06-.42c.55.05,1.14,0,1.7.05-2.06-.72-3.87.72-5.81,1.93.68-2.4,7.12-3.86,7.45-1.09a10.41,10.41,0,0,0,1.13-1.17Zm35,54.42h0c.2-1.3.06-.7.85-1.14-.05.34-.13.66-.19,1a1.09,1.09,0,0,0,.34-.59c1,.38.72,1.7.59,2.68.29-.58.82-1.21,1.49-.87.48.23-.4,1.56-.54,2.1a4.87,4.87,0,0,1,1.16-.61,3.37,3.37,0,0,0-1,3.82c.41,1.36,1.25-.23,1.17-1,.26.16.56.16.81.3-.56-1.21.47-2.56-.36-3.27s-1.4-2.64-1.73-3.53c-.64-1.63-3.77-8.48-2.38-9.27l-.34-.14c-.45.56-.55.46-1.21.58a2,2,0,0,1,1.31-1.46c-.1-.08-.58-.51-.71-.59-1,1.81-1,2.36.47,3.4-1.12-.5-3.23-1.57-3.7.21-.82,3-.33,2.42,1.87,3-2.56.56.57,3.6,1.22,4.87l.88.5ZM7.24,154.54h0c-2.11-.89-3.15.67-5.4.42.93,1.46,2.36,1.7,3.82,2.22.24-.79,1.12-.56,2-.64,0-.18,0-.36-.06-.54-.11-.63-.71-.56-.31-1.46ZM134.29,87.05h0c1.94,1,3.51,1.58,5,3.26,2.35,2.71,2,2.68,5.05,1l1.39-.82c.43-.23.29.71.6.63a18.78,18.78,0,0,0,2.94-1.32l.87-4.28c1.39.91,2.86-.25,3.25-1.75.33-1.31,1-1.25,2.16-1.76C158,80.85,162,80,164.13,78.19c1.35-1.2,1.24-1.82-.3-2.91a19.19,19.19,0,0,0-3.35-2.21c-2.46-1-5.09-2-7.2.34.17-.37.13-.85.26-1.23-2.85.82-5.37-2.52-8-2.15-3.15.47-6.3.9-9.45,1.34.53,1,2.87,4.1,2.36,4.58-1.06,1-3.62,3.44-2,4.81-2.77.26-.72,1.3-1.76,2.65-.87,1.13-2.33,2.27-1.94,3.93a7,7,0,0,0,1.58-.29Zm12.2-26.23-3.36-.47c-2-2.51-.17-3.25,2.28-3.51,1.53-.19,3.77-3,5-4,1.78-1.52,2.57-2.43,4.76-2.72.82-.1,2-.54,2.82-.26,1.09.41,2.05,1.11,3.05.16-.54-.18-.63-.49-1-.7,2.27-.88,3.08,0,5.24,1.16-1.42.53-4.43,2.05-1.06,2.66a3.22,3.22,0,0,0-1.69.35c2.57,1.3-1.09,4-2.48,4.39-2.09.58-4.42-1.8-2-3.34-.42-.42-1.82-.56-1.82.31,0,1.82-1,.92-2,1.56a1.12,1.12,0,0,1,.61,1.89c-1.22,1.38-1.77-1.13-2.43-.81-1.14.55.69,1.94,0,2.7s-1.89.83-2.71,1.11c.24-1.64-1-2.83-1.9-2-.46.47.39,1.77-1.21,1.54ZM171,46.73h0c-2.12-1.86-2.14-2.09-4.69-1.09.91.64,1.83,1.27,2.76,1.91l1.93-.82ZM46.54,165.91h0c1,.73,2.43-.37,2.87-1,.16.15.32.32.5.47.17-.24.35-.47.51-.7l-2-.86a3.44,3.44,0,0,0-1.85,2.13ZM114,186.14h0c.17-1.81-4.25-1.15-4.29-.76-.21,2.28,4.75,10.75,6.43,8.7-.49-.46-1-.9-1.48-1.35a19.35,19.35,0,0,1-.66-6.59ZM44.25,168.28h0c-2.83-1.7-3.23,4.24-.28,4,.84-.06,1.5-1.48,2.55-1.61a1.65,1.65,0,0,0,1.71-1.81c.75.36,1.27.12,1.59-.69-.29-.07-.56-.14-.84-.19.65-1.87-5-2.22-4.73.29Zm94.64,40.07h0c-.39-.69-1.64-.89-2.3-1.11-1-.31-1.13-1-1.68-2-1.63-3-2.12-2.32-5.07-3.29-2.32-.78-3.09-1.87-5.49-1.11,3.89,4.77,8,7.48,13.17,10.26,3.34,1.2,3,0,1.37-2.75ZM684.75,439l.1.16c.73,3.64,1.89,6.45.49,9.85-.54-.52-1.09-1.07-1.62-1.61a23.65,23.65,0,0,1-1.21,10.71q-2.82,9.41-5.63,18.84c-.51,1.71-1,3.44-1.54,5.17-.07.22-4.11,1.42-4.66,1.69-.8.37-4.62-1-4.77-1.9a52.76,52.76,0,0,0-1.24-6.75c-.66-2.36-1.22-4.16-.4-6.64.66-2,3.06-4.14,3.29-6.27.23-2-1.13-5.12-1.57-7-.25-1.1.75-5.22,1.65-5.36a21.3,21.3,0,0,0,6.3-2.32c2-1,2.74-2.72,4.28-4.5,1.93-2.19,2.79-2.21,2.91-5.32.18-3.92,2.8.15,3.62,1.29ZM904.5,336.26c.51.45,1,.88,1.49,1.34.34-1.17-.73-1.49-.56-2.54.32-1.91.64-3.85,1-5.77.12-.74,1.48-1.22,2.15-1.08,2.06.42,1,1.64,3.39.47.74,1.6-.63,2.16-.38,3.32.46,2.2,1.34,1.12.57,3.63a8,8,0,0,1-.57,2c-.27.44-1.46-.41-1.42.41.1,2.12-1.41,1.33-.24,3.66.59,1.18,0,2.78,1.61,2.86.57,0,.71-1.26,1.52-1.08a5.68,5.68,0,0,1,1.8.68,9.94,9.94,0,0,0,1.91,1.16c.53.14.59-1.27,1.21-.61,1.3,1.36.24,2.18-1.26,1.42-.1,2,2.12,1.37,1.12,3.56-.61-.39-2.54-1.25-2.55-2,0-2-.34-1.8-2.06-2.44l-.42,2.51a5.33,5.33,0,0,0-1.49-1.73c-1.79-1-1.26.15-2.69,0s-3-2.11-1-3.15c-1-.37-2.55-.49-2.74-1.67-.28-1.5-1.11-3.56-.39-4.91ZM910,309.48a25.72,25.72,0,0,1-2.59,6.72c-1.23-1.83-2.88-3.46-2.39-5.95a8,8,0,0,1,3.82-5.49c3.27-1.55,1.55,3,1.16,4.72Zm-7.26,44a4.91,4.91,0,0,1,1,.87c-.2.66.4,2.73.23,2.85-.65.5-2.57,1.45-2.69,2.28-.52,3.1-2.87,3.62-5.32,5.13a19,19,0,0,1,4.17-5.41c1.85-1.74,2.11-3.13,2.66-5.72Zm21,7.93c.86-.36,1.1.76,1,1.59l-.67.71c.25,0,.43.3.85.3a2.79,2.79,0,0,1-.05,1.15c1.43.09.21,3.74,0,4.72l-.53-.33c0,.73-.07,1.46-.11,2.18-.77-1.23-.23-2.48-1.11-3.69-1.79,1.3-.83,2.32-.51,3.86.43,2.06-2,3-1.23.6l-.29,0c-.5,1.77-3.26-.27-3.68-1.38-.66-1.72,1.62-5-1.82-4.51.12.45-.06,1,.09,1.45-.74-.5-.74-.19-.84-1.19-.45.5-.57.29-.87,1.08-.56-3.32-1.92,1.24-2.61,1.82-1.54-2.17,1.12-3.89,2.61-4.34.8-.24.25-2.3,1.78-2.21,1.35.09,1.46,1.64.71,2.56,1.29-.51,1.93-2.87,3.33-1.83-.13-1.23.21-2,1.24-1.35.49-.71.28-.56,1.34-.38-.14-.91-.29-1.81-.44-2.72a2.54,2.54,0,0,1,1.86,1.93Zm-16.88,66.34c1.34,3.13-3.6-.05-5.17-.67-.15-2.45,4.58-.71,5.17.67Zm-10.16-4.5c1,0,1.59-.44,1.09-1.48,1.92-.73,6.83,1.8,2.25,2.57-3.13.52-5.18.76-8.29-.25.64-1.45.54-2.14,2-2.1a5.11,5.11,0,0,1,2.92,1.26ZM910,424.6c-.73.1-.94-.88-2.06.1-.65-.75-5-.27-3.35-2.08,1.42-1.6,4.45,1,5.9.16.69-.4,1.46.76,2.07.22,1.11-1,1.22-1.11,2.62-1,2.32.17,3.69-.61,6,.25-1.61,1.47-5,.53-6.88.57-.88,0-1.54,1.4-3,1.15-.63-.11-.79.58-1.34.64ZM911.9,412c.16-.82,1-3.76,1.75-1.53-.18-1.55,1-2.19,1.53-.49-.69-.17-1.33.41-.77,1.19.78,1.08,0,1.43-.7,2.51-.6-.57-1.21-1.13-1.81-1.68Zm-41.84-20.62c.16-1.25.33-2.51.46-3.75.7-.41,1.38-.84,2.06-1.24.37,2.25,3.6,2.15,5.22,2.57-1.73-1.72-1.27-1.67,0-3.79,1-1.69,2.51-1.71,4.24-2.27s2.15-2.07,3.1-3.51c1.35-2.05,1.71-2.05,4-2.64,1.82-.47.72-1.58,2-3,.71-.78,2.87-4.22,3.85-4.36s3.27,2.18,3.91,3c.46.59,1,1.8,1.75,2,.93.23,1.5.1,1.88,1.11-1.1.28-2.2.62-3.32.93.46.61.91,1.24,1.36,1.85-.85.17-3.71.14-3.75,1.55-.07,2.91.82,2.73,1.7,5.22.16.45-.48,1.3-.29,1.7.32.67,1.47,1.34,2,1.82,2.09,1.92,1.06,2.27-1.23,1.77-1.12-.24-2,2-1.93,3.24.2,2.76.21,2.73-1.74,4.45-1.43,1.26-1.94,1.31-2,3.25s-.07,4.14-.12,6.24c-1,.12-1-.74-.75-1.71-1.46.71-2.92,1.45-4.38,2.17-.19-.72-.28-2.25-.95-2.54s-1.64.19-2.07-.06c-2.68-1.7-3-1.07-5.74.5-.14-.83-.28-1.67-.41-2.49-.89.42-4.45,1.9-4.64.06-.22-2.09.07-5.16-1.57-6.59-.29.95-.14.53-1.12,1,.27-1.37-.19-.63-.43-1.46-.17-.6-.36-1.17-.54-1.75s.59-.73.5-1.14c-.17-.69-1.09-1.31-1-2.06Zm49.22,36.94c-.79,1.1-2.3.94-3.5,1.19,1.48-1.31-.39-1.91.78-3a14.78,14.78,0,0,1,3.73-2c.42-.19.42-1,.78-1.13a9.58,9.58,0,0,1,2-.43,37.8,37.8,0,0,1,4.39-.5c-.56,2-4.51,3-6.09,3.75-1,.48-1.37,1.13-2.1,2.12ZM299.29,330c-2.46-.38-3.27.67-5.25-.74-.68-2.09,5.13.28,6.53-.75-1.44-2.14-1.18-2.87-3.49-4,2.22-1,2.86-.32,5.17-.27a7.5,7.5,0,0,0,2.06-.55c.76-.41,2,.41,2.78.65,1,.35,1.1-.43,1.69.72.79,1.55.87,1.55,2.45,1.87.65.15,2.1,1,1.71,1.7-1,1.64-.7.4-2.11.4-1.9,0-3.08.56-4.76.61-.32,0-.57-.93-1.52-.26-.53.37-.53,2.44-1.13,2.64-1.31.46-1.1-1.78-1.59-2-.65-.32-1.82.1-2.54,0ZM479.67,133.13c-1.15-.32-3.49,1.91-4.53,2.55l-2.71.38c-.93.13-.74.79-1.51,1.17a6.13,6.13,0,0,1-4.49.29,9.39,9.39,0,0,1-2.63-.59c-.44-.27-.89-1.69-1.41-1.62-1.95.25-3.89.52-5.86.75-.75-2,2.24-1.47,2.85-3.25l-.77-.08q.06-.39.15-.78c-1,.15-1.43-.51-.71-1.31-1.36,0-5.38.9-5.75-.93,2.22,0,4.68-1,7.15-.9,0-.24-.05-.47-.07-.7a2.53,2.53,0,0,1-2.42-.19l2.53-1.25c-1-.24-3.07-1.21-4-.83-2.08.82-2.65,1.24-4.68.36.71-.37.54-.65,1.43-.51,0-.32,0-.67,0-1,.58.36,1.58.9,2,.2s-1.79-.66-.61-2.11c1-1.2,4.11,2.22,3.79-.86-1-.18-1.88.06-2.19-1.12,2.36,0,2.25.34,4.06,1.9.34.3,1.74.58,1.8,1.24a1.07,1.07,0,0,1-1.34,1.13,32.6,32.6,0,0,0,1.85,3,27.61,27.61,0,0,1,1.24-2.89c.68-1.11,2.05.14,1-2.36,1.32-.29,2.11,1.27,3,2.21-.41-1.16.08-2.58,1.33-2.54,1.56,0,1.86,1.16,2.79,2.51-.14-.89-.25-1.78-.39-2.69,2.38,1.08,3-.16,5.51.09-1.45-3.74,6.83-.37,5.13,2.49,1.4-.52,2.34.36,3.51,1,.59.36-.29,2,.87,2.79-1,1-1.74,2.36-3.13,1.59.06,1.92-1,3.3-2.75,2.81ZM459.22,94.18h0c-.36-1.47-1.86-4.89-1.37-6.35,1.3-3.74,2.07-8.45,4.67-11.31,1.72-1.92,3.45-3.83,5.2-5.76.48-.52-.73-4.93-.85-5.67-.27-1.67-.09-4.32-1.49-5.28l-5.22-3.56,7.61-7.45c-2.67-1.82-4.41-2.54-5.7-5.66-1-2.38,2.09-5.47,3.31-7.49,1.36-2.23,3.89-3.16,5.93-4.58a28.83,28.83,0,0,0,5.92-5.29l-2-1.7c2.34-.47,5-.56,7.14-1.78q4-2.31,8-4.6c-2.91-1.15-6.14-3-9.18-3.58-2.2-.4-6.76-.88-8.28,1-1,1.22-1.64,3-3.17,2.72-1.83-.29-3.67-.61-5.5-.91-2.1-.35-6.27,2.54-8.29,3.41.32-.61,4.22-6.77,1.43-6.85-2.44-.08-4.76.4-6.8-1.25,3.3-1.18,6.59-2.38,9.88-3.57C454,5.86,448.32,3,441.5,2,433.88.93,426.64-.5,419,.17l-8.2.72c-.92.08-2.82-.16-3.67.33-1.31.76-1.5,3.77-3.2,3.46-2.19-.38-4.36-.77-6.56-1.14-2.65-.47-5.84-1.83-8.35-.7L377.93,7.92c3.49,2.23,7.34,3.87,9.59,7.61A122.79,122.79,0,0,0,369,10.1c-2-.39-4.85.62-6.83.87l-13.44,1.79c-1.94.26-5,0-6.84,1l-7.63,3.94-18.78,9.69c2.3,2.53,5.1,2.13,8.31,2.49l-2.07,5.29c-.76,2-1.05,1.58-3.05,1.67a35.34,35.34,0,0,0-8.08,1.58l-11,3.16c-.87.25-.86,2.45-1,3.35-.14.67,1.54,2.34,1.91,2.84,1.09,1.5,2.48,4.46,4,5.38,2.14,1.26,4.27,2.53,6.41,3.78,1.07.64,4.08,3.25,5.31,3.09,2.42-.3,4.84-.63,7.25-.93,4.35-.56,8.16.32,12.5,1.05,2.23.37,4.45.77,6.65,1.12,1.09.19,3.36,4.26,4.07,5.17,3,3.84,4.61,8.42,6.63,13,1.1,2.46,1.44,2.7.59,5.22s-2.13,3.81-.43,5.64,4,2.92,3.32,5.64-1.75,4.13,0,6.1c2.24,2.48,2.09,2.44,5.12,1.55l6.6-1.94c-.21,1.66-.41,3.3-.62,5-.06.55-2.12,1.07-2.56,1.24l-4.56,2c-.34.14-.38,2.32-.42,2.68-.29,2.21-1.51,6-.76,8.13q1.67,4.68,3.35,9.38c1.79,5.06,5,9.19,7.81,13.63l5.05,7.91c.83,1.31,3.21,1.56,4.51,2,2.69,1,5.35,2,8,3,.66.24,4.37.32,4.49-.12q2.5-7.78,5-15.61c1.33-4.18,2.79-8.25,4.3-12.34.81-2.22.71-2.26,2.76-2.94l8.08-2.63c1.67-.56,4.16-.85,5.67-1.87,1.68-1.15,3.2-4,4.53-5.65,1.19-1.47,1.64-2.41,3.3-2.83,2.52-.69,5-1.37,7.57-2,3.63-1,8.09-1.34,11.38-3.37,4.12-2.52,8.23-5,12.33-7.55,2-2.38,2.11-2.28,1.4-5.29ZM872.65,329c-.52.22.29.85-.58.78a3.12,3.12,0,0,1-1.74-.52c-1.61-.93-1.28-1.34-1.26-3.36,2-1.28,3.4-3.92,6.27-2.31,0-.25.11-.51.16-.75,1,.17,1.32,1,1.09,2.07-1.13-.08-1.38,1.48-1.55,2.54s-1.62,1.2-2.39,1.55ZM860,413.93c-1.13-2.28-2,.27-3.4-1.47,0,.58-.23,1.2-.21,1.79-3-2.78-5.68-5.63-8.33-8.55a18,18,0,0,1-3.55-4.51c-.92-2-1.82-5.68-3.3-7.23-.61-.64-1.54-.29-1.81-1.27-.38-1.43-.77-2.86-1.14-4.27-.64-2.4-3.69-1.89-3.79-4.51-.09-2.37-2.83-2.89-4.1-4-.57-.49-3.85-4.61-3.18-5.58.42-.61,4.54,1,5.39,1.06,2.74.31,2.31,1.36,3.77,3.45,1.11,1.5,3.25,2.9,4.56,4.15,1.58,1.51,3.54,2.09,4.83,3.87.7,1,1.47.86,2.59,1.05,1.83.34.59.61,1.65,1.43s1.68.07,1.68,1.71c0,.88,1.9.73,2.18,2.16.2,1-.95,1.37-.74,2.66.11.83,1.8,1.1,2.46,1.37s.66,2.47.79,3.11c.23,1.23,1.65,1.17.18,2.64,1.86-2.25,5.18-.14,4.24,2.61-.81,2.33-.27,5.75-.77,8.35Zm6.94-11.75c1.4,1.11,1.29,3.4-.93,2.68-.12-.56-.76-4,.93-2.68Zm17.92,18c3.39-.76,1.51,2,3,3.87-1.21-.55-2.44-1.1-3.67-1.62-2,.39-2.83-.28-4.83-.46-.32,0-.49.58-.92.53-.67-.07-1.33-.18-2-.25a12.38,12.38,0,0,1-2.49-.84,15.5,15.5,0,0,0-2.94-1.07c-1-.08-2.09.63-3,.45-1.84-.36-3.66-1.5-5.63-1.88.06-.29.13-.62.19-.94-1.64-.38-4.25-.56-2.29-2.84.67-.79.71-1.17,1.64-1s1.86.92,2.24-.2c.68.46,3.89,1.18,4.08,1.53,1.31,2.22,3,1.73,5.34,2,.61.06,1.46.48,1.67-.23.38-1.23.88-1.83,1.78-.7.74.95,3.56,1.22,4.65.71-.43,2.1,1.74,3.28,3.27,2.93Zm-26.72-19.63c.67-.86,1.06-2.28,2-.86a8.46,8.46,0,0,1-.14-.9c2.16-.2.8,3.8,3.48,3.71-.71.58-.82,1.18-.29,1.8a2.73,2.73,0,0,1-1.81-.79c-.59-.5-.33-.87-.78-1.37s-.57-1.26-.94-1.23a1.66,1.66,0,0,1-1.5-.36Z"/></g></g></svg>